<svg width="48" height="16" viewBox="0 0 48 16" fill="none" xmlns="http://www.w3.org/2000/svg">
<path d="M0.525781 15H7.02578C9.26578 15 11.1058 13.16 11.1058 10.9C11.1058 9.88 10.7458 8.94 10.0658 8.3C9.82578 8.04 9.64578 7.9 9.18578 7.68C9.68578 7.32 9.84578 7.18 10.1058 6.88C10.3458 6.56 10.5458 6.22 10.6658 5.86C10.8258 5.42 10.9058 4.94 10.9058 4.5C10.9058 2.28 9.20578 0.58 7.04578 0.58H0.525781V15ZM4.08578 3.46H6.16578C6.88578 3.46 7.44578 4.1 7.44578 4.88C7.44578 5.66 6.86578 6.32 6.22578 6.32H4.08578V3.46ZM4.08578 9.12H6.24578C6.96578 9.12 7.62578 9.82 7.62578 10.64C7.62578 11.46 7.00578 12.12 6.22578 12.12H4.08578V9.12ZM19.5664 0.279999C17.9264 0.3 17.2464 0.419999 16.2464 0.899999C15.7464 1.14 15.2664 1.44 14.8464 1.76C13.0064 3.24 11.9064 5.48 11.9064 7.78C11.9064 10.04 12.9864 12.28 14.8064 13.72C15.7264 14.44 16.8664 14.98 17.8464 15.12C18.2664 15.2 18.8464 15.24 19.5664 15.26V12.14C18.8664 12.06 18.5864 12 18.1464 11.78C17.7864 11.62 17.4664 11.46 17.1864 11.24C16.7064 10.88 16.2864 10.36 16.0664 9.9C15.9864 9.72 15.8864 9.5 15.8064 9.22H19.5664V6.24H15.8064C16.0264 5.62 16.1664 5.36 16.4064 5.04C16.8664 4.44 17.4664 4 18.1464 3.7C18.5864 3.5 18.8664 3.44 19.5664 3.34V0.279999ZM33.3233 15V12.12H31.1833C30.4233 12.12 29.9233 11.62 29.9233 10.88V0.58H26.4633V11.34C26.4633 13.36 28.1033 15 30.1033 15H33.3233ZM33.8266 15H37.2866V0.58H33.8266V15ZM37.8141 3.46H40.7741V15H44.2341V3.46H47.1941V0.58H37.8141V3.46Z" fill="white"/>
</svg>
