<svg width="69" height="16" viewBox="0 0 69 16" fill="none" xmlns="http://www.w3.org/2000/svg">
<path d="M0.783594 15H7.28359C9.52359 15 11.3636 13.16 11.3636 10.9C11.3636 9.88 11.0036 8.94 10.3236 8.3C10.0836 8.04 9.90359 7.9 9.44359 7.68C9.94359 7.32 10.1036 7.18 10.3636 6.88C10.6036 6.56 10.8036 6.22 10.9236 5.86C11.0836 5.42 11.1636 4.94 11.1636 4.5C11.1636 2.28 9.46359 0.58 7.30359 0.58H0.783594V15ZM4.34359 3.46H6.42359C7.14359 3.46 7.70359 4.1 7.70359 4.88C7.70359 5.66 7.12359 6.32 6.48359 6.32H4.34359V3.46ZM4.34359 9.12H6.50359C7.22359 9.12 7.88359 9.82 7.88359 10.64C7.88359 11.46 7.26359 12.12 6.48359 12.12H4.34359V9.12ZM19.8242 0.279999C18.1842 0.3 17.5042 0.419999 16.5042 0.899999C16.0042 1.14 15.5242 1.44 15.1042 1.76C13.2642 3.24 12.1642 5.48 12.1642 7.78C12.1642 10.04 13.2442 12.28 15.0642 13.72C15.9842 14.44 17.1242 14.98 18.1042 15.12C18.5242 15.2 19.1042 15.24 19.8242 15.26V12.14C19.1242 12.06 18.8442 12 18.4042 11.78C18.0442 11.62 17.7242 11.46 17.4442 11.24C16.9642 10.88 16.5442 10.36 16.3242 9.9C16.2442 9.72 16.1442 9.5 16.0642 9.22H19.8242V6.24H16.0642C16.2842 5.62 16.4242 5.36 16.6642 5.04C17.1242 4.44 17.7242 4 18.4042 3.7C18.8442 3.5 19.1242 3.44 19.8242 3.34V0.279999ZM26.4611 15.02C27.1211 15.12 27.4211 15.16 27.7811 15.16C30.4011 15.16 32.1611 13.86 32.1611 11.88C32.1611 11.44 32.0811 10.96 32.0011 10.44L31.0211 5.76C30.9411 5.36 30.9011 4.98 30.9011 4.7C30.9011 4.18 31.5611 3.74 32.3211 3.74C32.4811 3.74 32.6211 3.76 32.8811 3.82V0.599999C32.3011 0.519999 32.0411 0.5 31.7011 0.5C29.0011 0.5 27.2811 1.96 27.2811 4.32C27.2811 4.6 27.3411 4.9 27.4011 5.18L28.3411 9.84C28.4411 10.32 28.5011 10.72 28.5011 10.96C28.5011 11.52 27.8411 11.98 27.1011 11.98C26.9211 11.98 26.7611 11.96 26.4611 11.84V15.02ZM40.71 15V12.12H38.57C37.81 12.12 37.31 11.62 37.31 10.88V0.58H33.85V11.34C33.85 13.36 35.49 15 37.49 15H40.71ZM48.6133 0.279999C46.9733 0.3 46.2933 0.419999 45.2933 0.899999C44.7933 1.14 44.3133 1.44 43.8933 1.76C42.0533 3.24 40.9533 5.48 40.9533 7.78C40.9533 10.04 42.0333 12.28 43.8533 13.72C44.7733 14.44 45.9133 14.98 46.8933 15.12C47.3133 15.2 47.8933 15.24 48.6133 15.26V12.14C47.9133 12.06 47.6333 12 47.1933 11.78C46.8333 11.62 46.5133 11.46 46.2333 11.24C45.7533 10.88 45.3333 10.36 45.1133 9.9C45.0333 9.72 44.9333 9.5 44.8533 9.22H48.6133V6.24H44.8533C45.0733 5.62 45.2133 5.36 45.4533 5.04C45.9133 4.44 46.5133 4 47.1933 3.7C47.6333 3.5 47.9133 3.44 48.6133 3.34V0.279999ZM57.1094 0.279999C55.4694 0.3 54.7894 0.419999 53.7894 0.899999C53.2894 1.14 52.8094 1.44 52.3894 1.76C50.5494 3.24 49.4494 5.48 49.4494 7.78C49.4494 10.04 50.5294 12.28 52.3494 13.72C53.2694 14.44 54.4094 14.98 55.3894 15.12C55.8094 15.2 56.3894 15.24 57.1094 15.26V12.14C56.4094 12.06 56.1294 12 55.6894 11.78C55.3294 11.62 55.0094 11.46 54.7294 11.24C54.2494 10.88 53.8294 10.36 53.6094 9.9C53.5294 9.72 53.4294 9.5 53.3494 9.22H57.1094V6.24H53.3494C53.5694 5.62 53.7094 5.36 53.9494 5.04C54.4094 4.44 55.0094 4 55.6894 3.7C56.1294 3.5 56.4094 3.44 57.1094 3.34V0.279999ZM58.2055 15H61.6455V9.12C61.8455 9.12 61.9855 9.1 62.1255 9.1C63.7855 9.1 64.9255 10.32 64.9255 12.1V15H68.3855V11.22C68.3855 9.7 67.3855 8.4 65.5855 7.68C67.5055 6.94 68.3855 5.74 68.3855 3.92V0.58H64.9255V3.08C64.9255 4.36 64.6455 5.06 63.9655 5.56C63.3855 5.94 62.6655 6.18 61.9855 6.18C61.8855 6.18 61.7655 6.18 61.6455 6.16V0.58H58.2055V15Z" fill="white"/>
</svg>
