<svg width="48" height="16" viewBox="0 0 48 16" fill="none" xmlns="http://www.w3.org/2000/svg">
<path d="M0.320703 15H6.8207C9.0607 15 10.9007 13.16 10.9007 10.9C10.9007 9.88 10.5407 8.94 9.8607 8.3C9.6207 8.04 9.4407 7.9 8.9807 7.68C9.4807 7.32 9.6407 7.18 9.9007 6.88C10.1407 6.56 10.3407 6.22 10.4607 5.86C10.6207 5.42 10.7007 4.94 10.7007 4.5C10.7007 2.28 9.0007 0.58 6.8407 0.58H0.320703V15ZM3.8807 3.46H5.9607C6.6807 3.46 7.2407 4.1 7.2407 4.88C7.2407 5.66 6.6607 6.32 6.0207 6.32H3.8807V3.46ZM3.8807 9.12H6.0407C6.7607 9.12 7.4207 9.82 7.4207 10.64C7.4207 11.46 6.8007 12.12 6.0207 12.12H3.8807V9.12ZM19.3613 0.279999C17.7213 0.3 17.0413 0.419999 16.0413 0.899999C15.5413 1.14 15.0613 1.44 14.6413 1.76C12.8013 3.24 11.7013 5.48 11.7013 7.78C11.7013 10.04 12.7813 12.28 14.6013 13.72C15.5213 14.44 16.6613 14.98 17.6413 15.12C18.0613 15.2 18.6413 15.24 19.3613 15.26V12.14C18.6613 12.06 18.3813 12 17.9413 11.78C17.5813 11.62 17.2613 11.46 16.9813 11.24C16.5013 10.88 16.0813 10.36 15.8613 9.9C15.7813 9.72 15.6813 9.5 15.6013 9.22H19.3613V6.24H15.6013C15.8213 5.62 15.9613 5.36 16.2013 5.04C16.6613 4.44 17.2613 4 17.9413 3.7C18.3813 3.5 18.6613 3.44 19.3613 3.34V0.279999ZM26.2582 15H29.7182V9.62H33.1182V6.66H29.7182V4.72C29.7182 3.96 30.2182 3.46 30.9782 3.46H33.1182V0.58H29.8982C27.8982 0.58 26.2582 2.22 26.2582 4.24V15ZM34.0316 15H37.4916V0.58H34.0316V15ZM38.0191 3.46H40.9791V15H44.4391V3.46H47.3991V0.58H38.0191V3.46Z" fill="white"/>
</svg>
