<svg width="13" height="13" viewBox="0 0 13 13" fill="none" xmlns="http://www.w3.org/2000/svg">
<path d="M9.92857 11.5L9.60756 11.8833C9.70162 11.9621 9.82134 12.0035 9.94396 11.9998L9.92857 11.5ZM9.06617 10.0162C8.89209 9.80182 8.5772 9.76916 8.36284 9.94324C8.14848 10.1173 8.11582 10.4322 8.2899 10.6466L9.06617 10.0162ZM9.35613 9.73201L9.18644 9.26168C9.17993 9.26404 9.17347 9.26652 9.16706 9.26914L9.35613 9.73201ZM7.86644 10.1616L7.78474 9.66822L7.77678 9.66967L7.86644 10.1616ZM5.20548 10.1516L5.11324 10.643L5.1162 10.6436L5.20548 10.1516ZM3.69521 9.72211L3.51739 10.1894L3.51787 10.1896L3.69521 9.72211ZM2.94513 9.38248L2.67253 9.80164C2.68345 9.80874 2.69465 9.81541 2.70609 9.82164L2.94513 9.38248ZM2.85271 9.3325L3.12487 8.91307C3.10765 8.90189 3.08976 8.89179 3.0713 8.88282L2.85271 9.3325ZM2.81162 9.3026L3.16016 8.9441C3.12712 8.91198 3.0898 8.88458 3.04926 8.86268L2.81162 9.3026ZM4.71009 10.6265C4.88413 10.4121 4.85141 10.0972 4.63702 9.92317C4.42262 9.74914 4.10773 9.78185 3.93369 9.99625L4.71009 10.6265ZM3.07143 11.5L3.05604 11.9998C3.18078 12.0036 3.30244 11.9607 3.39713 11.8794L3.07143 11.5ZM0.5 9.62222H0C0 9.64971 0.0022682 9.67716 0.00678152 9.70429L0.5 9.62222ZM1.97944 2.54887L1.68485 2.14487C1.60695 2.20167 1.54713 2.27979 1.5126 2.36981L1.97944 2.54887ZM4.8664 1.50008L5.36402 1.45133C5.33933 1.19935 5.13018 1.00559 4.87705 1.0002L4.8664 1.50008ZM4.47153 2.59769C4.49846 2.87252 4.74307 3.07348 5.0179 3.04656C5.29273 3.01964 5.49369 2.77502 5.46677 2.50019L4.47153 2.59769ZM7.494 2.5234C7.45783 2.79716 7.65044 3.04841 7.92421 3.08458C8.19797 3.12075 8.44922 2.92814 8.48539 2.65437L7.494 2.5234ZM8.13353 1.50015L8.12286 1.00027C7.87614 1.00553 7.67016 1.19001 7.63783 1.43466L8.13353 1.50015ZM11.0205 2.54894L11.4873 2.36987C11.4528 2.27986 11.393 2.20175 11.3151 2.14495L11.0205 2.54894ZM12.5 9.62222L12.9932 9.7043C12.9977 9.67718 13 9.64972 13 9.62222H12.5ZM5.62666 7.58452L5.12666 7.57604V7.58452H5.62666ZM9.92857 11.5C10.2496 11.1167 10.2496 11.1167 10.2496 11.1167C10.2496 11.1167 10.2496 11.1167 10.2496 11.1167C10.2496 11.1167 10.2496 11.1166 10.2495 11.1166C10.2494 11.1165 10.2493 11.1164 10.2491 11.1163C10.2487 11.116 10.2481 11.1155 10.2473 11.1148C10.2457 11.1134 10.2432 11.1113 10.2399 11.1085C10.2332 11.1029 10.2233 11.0945 10.2105 11.0837C10.1849 11.062 10.1477 11.0304 10.1021 10.9913C10.0106 10.9128 9.88581 10.8046 9.75189 10.685C9.47267 10.4358 9.19081 10.1697 9.06617 10.0162L8.2899 10.6466C8.47351 10.8727 8.81692 11.1909 9.08591 11.431C9.22608 11.5562 9.3561 11.6689 9.45099 11.7503C9.4985 11.791 9.53736 11.8241 9.56446 11.847C9.57802 11.8585 9.58864 11.8674 9.59595 11.8736C9.59961 11.8767 9.60244 11.879 9.60439 11.8807C9.60536 11.8815 9.60612 11.8821 9.60665 11.8826C9.60692 11.8828 9.60713 11.883 9.60728 11.8831C9.60736 11.8832 9.60742 11.8832 9.60746 11.8833C9.60749 11.8833 9.60751 11.8833 9.60753 11.8833C9.60755 11.8833 9.60756 11.8833 9.92857 11.5ZM10.268 8.72166C9.87833 8.97117 9.5112 9.14452 9.18644 9.26168L9.52581 10.2023C9.92024 10.06 10.3544 9.85374 10.8072 9.56384L10.268 8.72166ZM9.16706 9.26914C8.68562 9.46579 8.2284 9.59482 7.78475 9.66828L7.94812 10.6548C8.47016 10.5684 8.99928 10.4179 9.5452 10.1949L9.16706 9.26914ZM7.77678 9.66967C6.8605 9.83668 6.01811 9.79091 5.29477 9.65963L5.1162 10.6436C5.93389 10.792 6.89969 10.846 7.9561 10.6535L7.77678 9.66967ZM5.29772 9.66018C4.74764 9.55692 4.27317 9.40659 3.87255 9.25462L3.51787 10.1896C3.95961 10.3572 4.49199 10.5264 5.11324 10.643L5.29772 9.66018ZM3.87303 9.2548C3.65016 9.17 3.41532 9.06914 3.18417 8.94332L2.70609 9.82164C2.98877 9.9755 3.2676 10.0944 3.51739 10.1894L3.87303 9.2548ZM3.21773 8.96333C3.1725 8.93392 3.12989 8.91382 3.11764 8.90786C3.09893 8.89876 3.11061 8.90382 3.12487 8.91307L2.58054 9.75194C2.62563 9.7812 2.66814 9.80124 2.68025 9.80713C2.69881 9.81616 2.687 9.81104 2.67253 9.80164L3.21773 8.96333ZM3.0713 8.88282C3.092 8.89288 3.11375 8.90616 3.13476 8.92246C3.15308 8.93667 3.16613 8.94991 3.16016 8.9441L2.46308 9.66109C2.48493 9.68234 2.541 9.73692 2.63411 9.78219L3.0713 8.88282ZM3.04926 8.86268C2.96561 8.81749 2.9017 8.7797 2.86007 8.75414C2.83927 8.74137 2.82409 8.73168 2.81483 8.72568C2.8102 8.72269 2.80706 8.72061 2.80545 8.71954C2.80465 8.719 2.80422 8.71872 2.80418 8.71869C2.80417 8.71868 2.80424 8.71874 2.80442 8.71885C2.80451 8.71891 2.80462 8.71899 2.80476 8.71908C2.80483 8.71913 2.8049 8.71918 2.80498 8.71923C2.80502 8.71926 2.80506 8.71929 2.80511 8.71932C2.80513 8.71933 2.80516 8.71936 2.80517 8.71936C2.80521 8.71939 2.80524 8.71941 2.52395 9.13278C2.24266 9.54615 2.24269 9.54618 2.24273 9.5462C2.24274 9.54621 2.24278 9.54623 2.2428 9.54625C2.24285 9.54628 2.2429 9.54632 2.24295 9.54635C2.24306 9.54643 2.24317 9.5465 2.24329 9.54658C2.24353 9.54674 2.24379 9.54692 2.24408 9.54712C2.24465 9.54751 2.24533 9.54796 2.24611 9.54849C2.24767 9.54953 2.24963 9.55085 2.252 9.55242C2.25673 9.55556 2.26306 9.55973 2.27095 9.56485C2.28674 9.57508 2.3088 9.58912 2.33681 9.60631C2.39278 9.64069 2.47271 9.68781 2.57398 9.74251L3.04926 8.86268ZM3.93369 9.99625C3.80731 10.1519 3.52339 10.4242 3.24437 10.6784C3.1102 10.8007 2.98518 10.9115 2.89362 10.9919C2.8479 11.032 2.81066 11.0645 2.78497 11.0867C2.77213 11.0979 2.76218 11.1065 2.75551 11.1122C2.75217 11.1151 2.74966 11.1173 2.74801 11.1187C2.74719 11.1194 2.74658 11.1199 2.7462 11.1202C2.74601 11.1204 2.74587 11.1205 2.74579 11.1206C2.74575 11.1206 2.74573 11.1206 2.74572 11.1206C2.74571 11.1206 2.74571 11.1206 2.74571 11.1206C2.74572 11.1206 2.74573 11.1206 3.07143 11.5C3.39713 11.8794 3.39715 11.8794 3.39717 11.8793C3.39718 11.8793 3.3972 11.8793 3.39723 11.8793C3.39727 11.8792 3.39733 11.8792 3.39741 11.8791C3.39756 11.879 3.39776 11.8788 3.39802 11.8786C3.39855 11.8781 3.3993 11.8775 3.40027 11.8767C3.40221 11.875 3.40502 11.8726 3.40866 11.8694C3.41595 11.8632 3.42654 11.854 3.44007 11.8423C3.46711 11.8188 3.5059 11.7851 3.55333 11.7434C3.64808 11.6602 3.77789 11.5451 3.91782 11.4177C4.18698 11.1725 4.52829 10.8504 4.71009 10.6265L3.93369 9.99625ZM3.08682 11.0002C2.10499 10.97 1.59923 10.5748 1.32862 10.2275C1.18699 10.0458 1.10099 9.86507 1.05091 9.73092C1.02603 9.66428 1.01058 9.61064 1.00181 9.5763C0.99744 9.55919 0.994775 9.54706 0.993456 9.54072C0.992798 9.53755 0.992479 9.53585 0.992454 9.53572C0.992441 9.53565 0.992503 9.53598 0.992632 9.53671C0.992697 9.53708 0.992778 9.53755 0.992876 9.53812C0.992925 9.5384 0.992978 9.53872 0.993035 9.53905C0.993064 9.53922 0.99311 9.5395 0.993124 9.53958C0.993171 9.53986 0.993218 9.54015 0.5 9.62222C0.00678152 9.70429 0.00683159 9.70459 0.00688297 9.70489C0.00690168 9.70501 0.00695464 9.70532 0.00699237 9.70554C0.00706801 9.70599 0.00714901 9.70647 0.00723553 9.70697C0.00740856 9.70798 0.00760359 9.70911 0.0078215 9.71034C0.0082573 9.71282 0.00878474 9.71574 0.00941077 9.71909C0.0106626 9.7258 0.0123102 9.73426 0.0144095 9.74435C0.0186056 9.76453 0.0246216 9.79131 0.0329117 9.82376C0.0494635 9.88857 0.0752563 9.97672 0.114059 10.0807C0.191336 10.2877 0.322451 10.5633 0.539854 10.8422C0.987307 11.4164 1.76726 11.9601 3.05604 11.9998L3.08682 11.0002ZM1 9.62222C1 8.07942 1.3567 6.36082 1.72235 5.01009C1.90413 4.33856 2.08596 3.76573 2.22213 3.36137C2.29018 3.15931 2.34672 2.99963 2.38601 2.89108C2.40566 2.83682 2.42098 2.79536 2.43127 2.76779C2.43641 2.75401 2.44029 2.74371 2.44282 2.73702C2.44409 2.73368 2.44502 2.73124 2.4456 2.72972C2.44589 2.72896 2.44609 2.72843 2.4462 2.72813C2.44626 2.72798 2.44629 2.72789 2.44631 2.72786C2.44631 2.72784 2.44631 2.72786 2.44631 2.72785C2.4463 2.72789 2.44628 2.72794 1.97944 2.54887C1.5126 2.36981 1.51257 2.36989 1.51254 2.36998C1.51252 2.37003 1.51248 2.37014 1.51244 2.37024C1.51236 2.37044 1.51226 2.3707 1.51214 2.37102C1.51189 2.37166 1.51156 2.37254 1.51114 2.37364C1.5103 2.37586 1.5091 2.379 1.50757 2.38305C1.5045 2.39115 1.50008 2.4029 1.49438 2.41815C1.483 2.44866 1.46654 2.49321 1.44573 2.55069C1.40412 2.66564 1.34508 2.83242 1.27443 3.04222C1.1332 3.46156 0.945166 4.05402 0.757091 4.74879C0.383018 6.13065 0 7.94872 0 9.62222H1ZM2.27403 2.95288C2.95028 2.45977 3.60796 2.22154 4.09313 2.10644C4.33567 2.0489 4.53411 2.02239 4.66846 2.01022C4.73557 2.00414 4.78645 2.00166 4.81858 2.00066C4.83464 2.00016 4.84598 2.00003 4.85229 2.00001C4.85544 1.99999 4.85733 2.00001 4.85792 2.00001C4.85822 2.00001 4.85819 2.00001 4.85783 2.00001C4.85765 2.00001 4.85739 2 4.85704 2C4.85687 1.99999 4.85668 1.99999 4.85646 1.99998C4.85635 1.99998 4.85618 1.99998 4.85612 1.99998C4.85594 1.99997 4.85575 1.99997 4.8664 1.50008C4.87705 1.0002 4.87685 1.00019 4.87665 1.00019C4.87657 1.00019 4.87636 1.00018 4.87621 1.00018C4.87591 1.00017 4.87559 1.00017 4.87524 1.00016C4.87456 1.00015 4.87378 1.00014 4.87292 1.00012C4.87119 1.0001 4.86912 1.00007 4.86671 1.00005C4.86189 1.00001 4.85569 0.999983 4.84818 1.00001C4.83315 1.00008 4.8128 1.00036 4.78748 1.00114C4.73686 1.00272 4.66622 1.00633 4.57826 1.01429C4.40247 1.03022 4.15656 1.06363 3.86229 1.13344C3.27384 1.27305 2.48804 1.55921 1.68485 2.14487L2.27403 2.95288ZM4.36878 1.54883L4.47153 2.59769L5.46677 2.50019L5.36402 1.45133L4.36878 1.54883ZM8.48539 2.65437L8.62922 1.56564L7.63783 1.43466L7.494 2.5234L8.48539 2.65437ZM8.13353 1.50015C8.1442 2.00004 8.14401 2.00004 8.14383 2.00005C8.14377 2.00005 8.1436 2.00005 8.14349 2.00005C8.14328 2.00006 8.14308 2.00006 8.14291 2.00006C8.14256 2.00007 8.1423 2.00007 8.14212 2.00008C8.14176 2.00008 8.14173 2.00008 8.14203 2.00008C8.14262 2.00007 8.14451 2.00006 8.14766 2.00007C8.15397 2.0001 8.16531 2.00023 8.18137 2.00073C8.21349 2.00172 8.26438 2.0042 8.33148 2.01028C8.46584 2.02244 8.66427 2.04895 8.90681 2.10648C9.39197 2.22157 10.0496 2.4598 10.7259 2.95293L11.3151 2.14495C10.5119 1.55925 9.72609 1.27308 9.13763 1.13349C8.84336 1.06368 8.59744 1.03027 8.42165 1.01435C8.33369 1.00639 8.26305 1.00278 8.21242 1.00121C8.1871 1.00042 8.16676 1.00014 8.15173 1.00008C8.14421 1.00005 8.13802 1.00008 8.13319 1.00012C8.13078 1.00014 8.12871 1.00016 8.12699 1.00019C8.12612 1.0002 8.12535 1.00022 8.12466 1.00023C8.12432 1.00024 8.12399 1.00024 8.12369 1.00025C8.12354 1.00025 8.12333 1.00026 8.12326 1.00026C8.12306 1.00026 8.12286 1.00027 8.13353 1.50015ZM11.0205 2.54894C10.5537 2.72801 10.5536 2.72797 10.5536 2.72793C10.5536 2.72794 10.5536 2.72792 10.5536 2.72794C10.5536 2.72797 10.5537 2.72806 10.5537 2.72821C10.5538 2.7285 10.554 2.72903 10.5543 2.72979C10.5549 2.73131 10.5558 2.73376 10.5571 2.7371C10.5596 2.74379 10.5635 2.75409 10.5687 2.76787C10.579 2.79543 10.5943 2.83689 10.6139 2.89116C10.6532 2.9997 10.7098 3.15938 10.7778 3.36144C10.914 3.76579 11.0958 4.33861 11.2776 5.01013C11.6433 6.36085 12 8.07943 12 9.62222H13C13 7.94872 12.617 6.13066 12.2429 4.74882C12.0548 4.05405 11.8667 3.46161 11.7255 3.04226C11.6549 2.83248 11.5958 2.6657 11.5542 2.55075C11.5334 2.49327 11.5169 2.44872 11.5055 2.41821C11.4998 2.40296 11.4954 2.39121 11.4924 2.38311C11.4908 2.37906 11.4896 2.37591 11.4888 2.3737C11.4884 2.3726 11.488 2.37172 11.4878 2.37108C11.4877 2.37076 11.4876 2.3705 11.4875 2.3703C11.4874 2.3702 11.4874 2.37009 11.4874 2.37004C11.4874 2.36995 11.4873 2.36987 11.0205 2.54894ZM12.5 9.62222C12.0068 9.54013 12.0068 9.53984 12.0069 9.53956C12.0069 9.53948 12.0069 9.5392 12.007 9.53903C12.007 9.5387 12.0071 9.53838 12.0071 9.5381C12.0072 9.53753 12.0073 9.53706 12.0074 9.53669C12.0075 9.53596 12.0076 9.53563 12.0075 9.5357C12.0075 9.53583 12.0072 9.53753 12.0065 9.5407C12.0052 9.54704 12.0026 9.55918 11.9982 9.57629C11.9894 9.61062 11.974 9.66426 11.9491 9.7309C11.899 9.86506 11.813 10.0458 11.6714 10.2275C11.4007 10.5748 10.895 10.97 9.91318 11.0002L9.94396 11.9998C11.2327 11.9601 12.0127 11.4164 12.4601 10.8422C12.6775 10.5633 12.8086 10.2877 12.8859 10.0807C12.9247 9.97673 12.9505 9.88859 12.9671 9.82378C12.9754 9.79132 12.9814 9.76455 12.9856 9.74437C12.9877 9.73428 12.9893 9.72582 12.9906 9.71911C12.9912 9.71575 12.9917 9.71283 12.9922 9.71036C12.9924 9.70913 12.9926 9.708 12.9928 9.70699C12.9928 9.70649 12.9929 9.70601 12.993 9.70556C12.993 9.70534 12.9931 9.70502 12.9931 9.70491C12.9932 9.70461 12.9932 9.7043 12.5 9.62222ZM4.57873 5.97585C3.68786 5.97585 3.03087 6.72917 3.03087 7.58452H4.03087C4.03087 7.22133 4.29841 6.97585 4.57873 6.97585V5.97585ZM3.03087 7.58452C3.03087 8.44319 3.70118 9.19326 4.57873 9.19326V8.19326C4.3056 8.19326 4.03087 7.94452 4.03087 7.58452H3.03087ZM4.57873 9.19326C5.46967 9.19326 6.12666 8.43993 6.12666 7.58452H5.12666C5.12666 7.94777 4.85912 8.19326 4.57873 8.19326V9.19326ZM6.12659 7.59299C6.14133 6.723 5.46213 5.97585 4.57873 5.97585V6.97585C4.86652 6.97585 5.13264 7.2275 5.12673 7.57605L6.12659 7.59299ZM8.32877 5.97585C7.4379 5.97585 6.78077 6.7291 6.78077 7.58452H7.78077C7.78077 7.2214 8.04832 6.97585 8.32877 6.97585V5.97585ZM6.78077 7.58452C6.78077 8.44328 7.45131 9.19326 8.32877 9.19326V8.19326C8.05556 8.19326 7.78077 7.94443 7.78077 7.58452H6.78077ZM8.32877 9.19326C9.21967 9.19326 9.87664 8.43991 9.87664 7.58452H8.87664C8.87664 7.9478 8.60907 8.19326 8.32877 8.19326V9.19326ZM9.87664 7.58452C9.87664 6.72917 9.21965 5.97585 8.32877 5.97585V6.97585C8.60909 6.97585 8.87664 7.22133 8.87664 7.58452H9.87664ZM3.30565 4.02514C4.53683 3.37235 5.534 3.07069 6.50204 3.07023C7.46979 3.06976 8.4654 3.37029 9.69344 4.02466L10.1637 3.14213C8.85264 2.44353 7.69163 2.06965 6.50156 2.07023C5.31177 2.0708 4.14992 2.44563 2.83721 3.14165L3.30565 4.02514Z" fill="#111111"/>
</svg>
