<svg width="15" height="13" viewBox="0 0 15 13" fill="none" xmlns="http://www.w3.org/2000/svg">
<path d="M7.50026 11.7L7.14671 12.0535C7.34197 12.2488 7.65855 12.2488 7.85381 12.0535L7.50026 11.7ZM2.33106 6.53078L1.9775 6.88434L1.9775 6.88434L2.33106 6.53078ZM12.6695 6.53078L12.3159 6.17723L12.6695 6.53078ZM6.66439 2.19745L6.31084 2.551V2.551L6.66439 2.19745ZM7.50026 3.03332L7.14671 3.38687C7.34197 3.58214 7.65855 3.58214 7.85381 3.38687L7.50026 3.03332ZM8.33613 2.19745L7.98258 1.8439V1.8439L8.33613 2.19745ZM7.85381 11.3464L2.68461 6.17723L1.9775 6.88434L7.14671 12.0535L7.85381 11.3464ZM12.3159 6.17723L7.14671 11.3464L7.85381 12.0535L13.023 6.88434L12.3159 6.17723ZM6.31084 2.551L7.14671 3.38687L7.85381 2.67977L7.01794 1.8439L6.31084 2.551ZM7.85381 3.38687L8.68968 2.551L7.98258 1.8439L7.14671 2.67977L7.85381 3.38687ZM10.5028 0.799988C9.55753 0.799988 8.65098 1.17549 7.98258 1.8439L8.68968 2.551C9.17055 2.07014 9.82275 1.79999 10.5028 1.79999V0.799988ZM13.0669 4.36412C13.0669 5.04417 12.7968 5.69636 12.3159 6.17723L13.023 6.88434C13.6914 6.21593 14.0669 5.30938 14.0669 4.36412H13.0669ZM14.0669 4.36412C14.0669 2.3957 12.4712 0.799988 10.5028 0.799988V1.79999C11.9189 1.79999 13.0669 2.94799 13.0669 4.36412H14.0669ZM4.49772 1.79999C5.17777 1.79999 5.82997 2.07014 6.31084 2.551L7.01794 1.8439C6.34954 1.17549 5.44299 0.799988 4.49772 0.799988V1.79999ZM1.93359 4.36412C1.93359 2.94799 3.08159 1.79999 4.49772 1.79999V0.799988C2.52931 0.799988 0.933594 2.3957 0.933594 4.36412H1.93359ZM2.68461 6.17723C2.20374 5.69636 1.93359 5.04417 1.93359 4.36412H0.933594C0.933594 5.30938 1.3091 6.21593 1.9775 6.88434L2.68461 6.17723Z" fill="#111111"/>
</svg>
