<svg width="13" height="11" viewBox="0 0 13 11" fill="none" xmlns="http://www.w3.org/2000/svg">
<path d="M2.17414 5.52757L6.50002 10.1539L10.8259 5.52757C11.3068 5.01329 11.5769 4.31577 11.5769 3.58847C11.5769 2.07393 10.4289 0.846161 9.01271 0.846161C8.33263 0.846161 7.68041 1.13508 7.19952 1.64936L6.50002 2.39744L5.80052 1.64936C5.31963 1.13508 4.66741 0.846161 3.98733 0.846161C2.57114 0.846161 1.4231 2.07393 1.4231 3.58847C1.4231 4.31577 1.69325 5.01329 2.17414 5.52757Z" fill="transparent"/>
<path d="M6.50002 10.1539L6.13481 10.4953C6.22935 10.5965 6.36159 10.6539 6.50002 10.6539C6.63845 10.6539 6.77068 10.5965 6.86523 10.4953L6.50002 10.1539ZM2.17414 5.52757L1.80893 5.86906H1.80893L2.17414 5.52757ZM10.8259 5.52757L11.1911 5.86907L10.8259 5.52757ZM5.80052 1.64936L5.4353 1.99086V1.99086L5.80052 1.64936ZM6.50002 2.39744L6.13481 2.73894C6.22935 2.84005 6.36159 2.89744 6.50002 2.89744C6.63845 2.89744 6.77068 2.84005 6.86523 2.73894L6.50002 2.39744ZM7.19952 1.64936L6.83431 1.30787L6.83431 1.30787L7.19952 1.64936ZM6.86523 9.81236L2.53935 5.18607L1.80893 5.86906L6.13481 10.4953L6.86523 9.81236ZM10.4607 5.18607L6.13481 9.81236L6.86523 10.4953L11.1911 5.86907L10.4607 5.18607ZM5.4353 1.99086L6.13481 2.73894L6.86523 2.05595L6.16573 1.30787L5.4353 1.99086ZM6.86523 2.73894L7.56473 1.99086L6.83431 1.30787L6.13481 2.05595L6.86523 2.73894ZM9.01271 0.346161C8.18878 0.346161 7.40597 0.696502 6.83431 1.30787L7.56473 1.99086C7.95484 1.57366 8.47648 1.34616 9.01271 1.34616V0.346161ZM11.0769 3.58847C11.0769 4.19359 10.8519 4.76774 10.4607 5.18607L11.1911 5.86907C11.7617 5.25884 12.0769 4.43795 12.0769 3.58847H11.0769ZM12.0769 3.58847C12.0769 1.82994 10.7361 0.346161 9.01271 0.346161V1.34616C10.1217 1.34616 11.0769 2.31792 11.0769 3.58847H12.0769ZM3.98733 1.34616C4.52355 1.34616 5.04519 1.57366 5.4353 1.99086L6.16573 1.30787C5.59406 0.696503 4.81126 0.346161 3.98733 0.346161V1.34616ZM1.9231 3.58847C1.9231 2.31792 2.87837 1.34616 3.98733 1.34616V0.346161C2.26391 0.346161 0.923096 1.82994 0.923096 3.58847H1.9231ZM2.53935 5.18607C2.14818 4.76773 1.9231 4.19359 1.9231 3.58847H0.923096C0.923096 4.43795 1.23833 5.25884 1.80893 5.86906L2.53935 5.18607Z" fill="#000000"/>
</svg>
