<svg width="190" height="26" viewBox="0 0 190 26" fill="none" xmlns="http://www.w3.org/2000/svg">
<path d="M0.470469 1.207H6.17947V25H0.470469V1.207ZM8.20484 7.279C8.20484 5.497 8.83184 3.968 10.0858 2.692C11.3398 1.416 12.8688 0.777999 14.6728 0.777999C15.5528 0.777999 16.3888 0.942999 17.1808 1.273C17.9948 1.603 18.5998 1.955 18.9958 2.329L19.9528 3.22L20.7778 4.276L21.5698 3.253L23.1208 1.867C23.9788 1.141 25.2438 0.777999 26.9158 0.777999C28.6978 0.777999 30.2158 1.405 31.4698 2.659C32.7238 3.913 33.3508 5.453 33.3508 7.279V25H27.6418V7.873C27.6418 7.279 27.4328 6.784 27.0148 6.388C26.5968 5.97 26.1128 5.761 25.5628 5.761C24.9908 5.761 24.5068 5.97 24.1108 6.388C23.7368 6.784 23.5498 7.29 23.5498 7.906V25H17.8738V7.906C17.8738 7.29 17.6978 6.784 17.3458 6.388C17.0158 5.97 16.5538 5.761 15.9598 5.761C15.4098 5.761 14.9258 5.97 14.5078 6.388C14.1118 6.784 13.9138 7.279 13.9138 7.873V25H8.20484V7.279ZM35.3718 9.259C35.3718 6.685 36.1638 4.628 37.7478 3.088C39.3318 1.548 41.4328 0.777999 44.0508 0.777999C46.6908 0.777999 48.7918 1.548 50.3538 3.088C51.9378 4.606 52.7298 6.663 52.7298 9.259V25H47.0208V16.915H41.0808V25H35.3718V9.259ZM41.0808 12.262H47.0208V8.764C47.0208 7.818 46.7568 7.059 46.2288 6.487C45.7008 5.893 44.9748 5.596 44.0508 5.596C43.1928 5.596 42.4778 5.893 41.9058 6.487C41.3558 7.059 41.0808 7.818 41.0808 8.764V12.262ZM71.4058 7.939C69.9978 6.663 68.4688 6.025 66.8188 6.025C64.9928 6.025 63.3868 6.729 62.0008 8.137C60.6368 9.523 59.9548 11.151 59.9548 13.021C59.9548 14.869 60.6588 16.508 62.0668 17.938C63.4748 19.346 65.1138 20.05 66.9838 20.05C68.7658 20.05 70.0418 19.654 70.8118 18.862C71.6038 18.07 72.1428 17.454 72.4288 17.014L73.1548 15.43L65.7628 15.496V10.678H79.0948C79.1828 11.184 79.2488 11.646 79.2928 12.064C79.3368 12.46 79.3588 12.823 79.3588 13.153C79.3588 16.453 78.0938 19.324 75.5638 21.766C73.0558 24.208 70.0748 25.429 66.6208 25.429C63.2328 25.429 60.3288 24.241 57.9088 21.865C55.4888 19.467 54.2788 16.552 54.2788 13.12C54.2788 9.688 55.5108 6.762 57.9748 4.342C60.4388 1.9 63.4198 0.678998 66.9178 0.678998C68.0838 0.678998 69.1618 0.810999 70.1518 1.075C71.1638 1.339 72.0438 1.691 72.7918 2.131C73.5398 2.571 74.0788 2.945 74.4088 3.253C74.7828 3.539 75.2558 3.99 75.8278 4.606L71.4058 7.939ZM93.1502 5.761C92.5562 5.827 92.1052 5.904 91.7972 5.992C91.5112 6.058 90.9832 6.267 90.2132 6.619C89.4432 6.949 88.8162 7.422 88.3322 8.038C88.1122 8.324 87.9252 8.599 87.7712 8.863C87.6172 9.105 87.5072 9.281 87.4412 9.391L86.9462 10.546H93.1502V15.463H86.9462L87.1772 16.189L87.6392 17.179C87.8812 17.663 88.2552 18.092 88.7612 18.466L89.9822 19.291L91.0382 19.819C91.3682 19.995 92.0722 20.149 93.1502 20.281V25.429H92.5562C92.4022 25.429 92.2482 25.429 92.0942 25.429C91.8742 25.385 91.7202 25.363 91.6322 25.363C91.1042 25.363 90.6642 25.308 90.3122 25.198C89.5422 25.11 88.7062 24.857 87.8042 24.439C86.9022 24.021 85.8792 23.361 84.7352 22.459C83.5912 21.557 82.6012 20.248 81.7652 18.532C80.9292 16.794 80.5112 14.979 80.5112 13.087C80.5112 11.217 80.9402 9.402 81.7982 7.642C82.6562 5.882 83.6352 4.573 84.7352 3.715C85.8352 2.835 86.8032 2.186 87.6392 1.768C87.9912 1.592 88.3762 1.438 88.7942 1.306C89.2122 1.152 89.6192 1.042 90.0152 0.975999C90.4332 0.887998 90.8952 0.821999 91.4012 0.777999C91.9072 0.733998 92.4902 0.711998 93.1502 0.711998V5.761ZM121.228 7.939C119.82 6.663 118.291 6.025 116.641 6.025C114.815 6.025 113.209 6.729 111.823 8.137C110.459 9.523 109.777 11.151 109.777 13.021C109.777 14.869 110.481 16.508 111.889 17.938C113.297 19.346 114.936 20.05 116.806 20.05C118.588 20.05 119.864 19.654 120.634 18.862C121.426 18.07 121.965 17.454 122.251 17.014L122.977 15.43L115.585 15.496V10.678H128.917C129.005 11.184 129.071 11.646 129.115 12.064C129.159 12.46 129.181 12.823 129.181 13.153C129.181 16.453 127.916 19.324 125.386 21.766C122.878 24.208 119.897 25.429 116.443 25.429C113.055 25.429 110.151 24.241 107.731 21.865C105.311 19.467 104.101 16.552 104.101 13.12C104.101 9.688 105.333 6.762 107.797 4.342C110.261 1.9 113.242 0.678998 116.74 0.678998C117.906 0.678998 118.984 0.810999 119.974 1.075C120.986 1.339 121.866 1.691 122.614 2.131C123.362 2.571 123.901 2.945 124.231 3.253C124.605 3.539 125.078 3.99 125.65 4.606L121.228 7.939ZM148.12 17.113C148.12 19.467 147.295 21.447 145.645 23.053C143.995 24.659 141.927 25.462 139.441 25.462C136.955 25.462 134.887 24.681 133.237 23.119C131.587 21.557 130.762 19.588 130.762 17.212V1.207H136.471V17.773C136.471 18.499 136.757 19.148 137.329 19.72C137.923 20.248 138.638 20.512 139.474 20.512C140.288 20.512 140.981 20.248 141.553 19.72C142.125 19.17 142.411 18.477 142.411 17.641V1.207H148.12V17.113ZM150.098 1.207H155.807V25H150.098V1.207ZM162.981 0.777999C166.721 0.777999 169.812 1.966 172.254 4.342C174.696 6.696 175.917 9.71 175.917 13.384C175.917 16.948 174.729 19.863 172.353 22.129C169.999 24.395 166.963 25.528 163.245 25.528C162.321 25.528 161.485 25.462 160.737 25.33C159.989 25.198 159.021 24.934 157.833 24.538V1.702C158.823 1.394 159.714 1.163 160.506 1.009C161.32 0.854999 162.145 0.777999 162.981 0.777999ZM163.542 6.619V19.687C165.39 19.687 166.919 19.071 168.129 17.839C169.339 16.607 169.944 15.056 169.944 13.186C169.944 11.316 169.339 9.754 168.129 8.5C166.919 7.246 165.39 6.619 163.542 6.619ZM189.701 5.761C189.107 5.827 188.656 5.904 188.348 5.992C188.062 6.058 187.534 6.267 186.764 6.619C185.994 6.949 185.367 7.422 184.883 8.038C184.663 8.324 184.476 8.599 184.322 8.863C184.168 9.105 184.058 9.281 183.992 9.391L183.497 10.546H189.701V15.463H183.497L183.728 16.189L184.19 17.179C184.432 17.663 184.806 18.092 185.312 18.466L186.533 19.291L187.589 19.819C187.919 19.995 188.623 20.149 189.701 20.281V25.429H189.107C188.953 25.429 188.799 25.429 188.645 25.429C188.425 25.385 188.271 25.363 188.183 25.363C187.655 25.363 187.215 25.308 186.863 25.198C186.093 25.11 185.257 24.857 184.355 24.439C183.453 24.021 182.43 23.361 181.286 22.459C180.142 21.557 179.152 20.248 178.316 18.532C177.48 16.794 177.062 14.979 177.062 13.087C177.062 11.217 177.491 9.402 178.349 7.642C179.207 5.882 180.186 4.573 181.286 3.715C182.386 2.835 183.354 2.186 184.19 1.768C184.542 1.592 184.927 1.438 185.345 1.306C185.763 1.152 186.17 1.042 186.566 0.975999C186.984 0.887998 187.446 0.821999 187.952 0.777999C188.458 0.733998 189.041 0.711998 189.701 0.711998V5.761Z" fill="white"/>
</svg>
