<svg width="15" height="15" viewBox="0 0 15 15" fill="none" xmlns="http://www.w3.org/2000/svg">
<path d="M3.78571 1.80951H11.2143V0.809509H3.78571V1.80951ZM13.1905 3.7857V11.2143H14.1905V3.7857H13.1905ZM11.2143 13.1905H3.78571V14.1905H11.2143V13.1905ZM1.80952 11.2143V3.7857H0.809525V11.2143H1.80952ZM3.78571 13.1905C2.6943 13.1905 1.80952 12.3057 1.80952 11.2143H0.809525C0.809525 12.858 2.14201 14.1905 3.78571 14.1905V13.1905ZM13.1905 11.2143C13.1905 12.3057 12.3057 13.1905 11.2143 13.1905V14.1905C12.858 14.1905 14.1905 12.858 14.1905 11.2143H13.1905ZM11.2143 1.80951C12.3057 1.80951 13.1905 2.69428 13.1905 3.7857H14.1905C14.1905 2.142 12.858 0.809509 11.2143 0.809509V1.80951ZM3.78571 0.809509C2.14201 0.809509 0.809525 2.14199 0.809525 3.7857H1.80952C1.80952 2.69428 2.6943 1.80951 3.78571 1.80951V0.809509ZM7.5 9.47618C6.40858 9.47618 5.52381 8.5914 5.52381 7.49999H4.52381C4.52381 9.14369 5.8563 10.4762 7.5 10.4762V9.47618ZM9.47619 7.49999C9.47619 8.5914 8.59142 9.47618 7.5 9.47618V10.4762C9.1437 10.4762 10.4762 9.14369 10.4762 7.49999H9.47619ZM7.5 5.52379C8.59142 5.52379 9.47619 6.40857 9.47619 7.49999H10.4762C10.4762 5.85628 9.1437 4.52379 7.5 4.52379V5.52379ZM7.5 4.52379C5.8563 4.52379 4.52381 5.85628 4.52381 7.49999H5.52381C5.52381 6.40857 6.40858 5.52379 7.5 5.52379V4.52379ZM10.9048 4.90475H11.5238V3.90475H10.9048V4.90475Z" fill="#111111"/>
</svg>
