<svg width="13" height="13" viewBox="0 0 13 13" fill="none" xmlns="http://www.w3.org/2000/svg">
<path d="M3.21429 5.10714V9.75H4.21429V5.10714H3.21429ZM8.78571 7.42857V9.75H9.78571V7.42857C9.78571 6.12676 8.73038 5.07143 7.42857 5.07143C6.92329 5.07143 6.45515 5.23041 6.07143 5.50108V5.10714H5.07143V7.42857V9.75H6.07143V7.42857C6.07143 6.67904 6.67904 6.07143 7.42857 6.07143C8.1781 6.07143 8.78571 6.67904 8.78571 7.42857ZM3.25 4.21429H4.17857V3.21429H3.25V4.21429ZM0.928571 0.5H12.0714C12.3081 0.5 12.5 0.691878 12.5 0.928571V12.0714C12.5 12.3081 12.3081 12.5 12.0714 12.5H0.928572C0.691878 12.5 0.5 12.3081 0.5 12.0714V0.928572C0.5 0.691878 0.691878 0.5 0.928571 0.5Z" stroke="#111111"/>
</svg>
