<svg width="147" height="20" viewBox="0 0 147 20" fill="none" xmlns="http://www.w3.org/2000/svg">
<g clip-path="url(#clip0_137_2346)">
<path fill-rule="evenodd" clip-rule="evenodd" d="M116.989 1.59066C115.945 2.65109 115.422 3.92177 115.422 5.40272L115.415 20H120.163V5.89636C120.157 5.66473 120.2 5.43448 120.287 5.21985C120.374 5.00521 120.505 4.81077 120.67 4.64853C120.824 4.48698 121.009 4.35862 121.214 4.27136C121.42 4.1841 121.641 4.1398 121.864 4.14117C122.358 4.14063 122.747 4.30975 123.03 4.64853C123.314 4.98731 123.455 5.4124 123.455 5.92379V20H128.203V5.92379C128.189 5.45137 128.363 4.9927 128.687 4.64853C128.839 4.48413 129.023 4.35385 129.229 4.26637C129.435 4.17889 129.657 4.13621 129.881 4.14117C130.342 4.14795 130.782 4.33583 131.106 4.66424C131.43 4.99265 131.612 5.43522 131.612 5.89636V20.0024H136.359V5.40272C136.36 3.88521 135.838 2.60538 134.793 1.56323C133.747 0.521089 132.483 1.55222e-05 130.999 1.55222e-05C129.607 1.55222e-05 128.554 0.301689 127.84 0.905037L126.548 2.05688L125.889 2.90705L125.201 2.02946L124.405 1.28898C124.075 0.978169 123.575 0.685638 122.907 0.411389C122.241 0.138082 121.528 -0.0016956 120.808 1.55222e-05C119.306 1.55222e-05 118.033 0.53023 116.989 1.59066ZM114.481 3.90161C114.107 3.9367 113.736 3.99625 113.37 4.07987C113.123 4.1444 112.679 4.31809 112.039 4.60095C111.427 4.86269 110.889 5.27268 110.475 5.79393C110.307 6.00913 110.151 6.23344 110.009 6.46584C109.88 6.67663 109.789 6.82747 109.734 6.91835L109.322 7.87822H114.481V11.9645H109.322L109.515 12.5655L109.899 13.3858C110.121 13.8107 110.441 14.1764 110.833 14.4521L111.849 15.1353L112.727 15.5725C113.001 15.7188 113.587 15.8462 114.483 15.9548L114.448 20H113.185C112.746 20 112.247 19.9928 111.916 19.9194L111.831 19.9016C111.237 19.7767 110.729 19.6698 110.013 19.3378C109.11 18.9303 108.262 18.4137 107.486 17.7996C106.534 17.0467 105.711 15.9527 105.016 14.5175C104.325 13.1083 103.968 11.5591 103.973 9.98996C103.978 8.42081 104.344 6.87382 105.043 5.46886C105.757 4.00486 106.57 3.21035 107.486 2.48843C108.401 1.76651 109.205 1.2293 109.9 0.88165C110.211 0.727346 110.532 0.594483 110.861 0.48399C111.197 0.367829 111.541 0.275907 111.89 0.208934C112.228 0.144405 112.608 0.0938577 113.029 0.0572912C113.449 0.0207247 113.934 0.00244141 114.481 0.00244141V3.90161ZM138.195 15.7476H137.316L137.312 19.9992H139.098C140.91 19.9992 142.388 19.6887 143.486 18.8474C144.583 18.0064 145.132 16.9276 145.132 15.6112L145.051 14.6514L144.914 13.6367L143.57 7.21923C143.473 6.74105 143.419 6.25514 143.408 5.76732C143.408 5.4022 143.6 5.09138 143.985 4.83488C144.393 4.57198 144.871 4.43818 145.357 4.45093H146.125V0.00567627H144.506C142.658 0.00567627 141.186 0.481041 140.088 1.43177C138.99 2.3825 138.441 3.65319 138.441 5.24383L138.496 5.81975L138.606 6.4231L139.897 12.8131C139.935 12.9782 139.981 13.2022 140.035 13.485C140.089 13.7697 140.116 14.059 140.115 14.3489C140.115 14.7328 139.914 15.0619 139.512 15.3362C139.125 15.6053 138.665 15.749 138.195 15.7476ZM1.38214 15.7476H0.504028V20.0008H2.28044C4.09155 20.0008 5.56933 19.6903 6.66698 18.849C7.76462 18.008 8.31344 16.9293 8.31344 15.6129L8.23273 14.653L8.09553 13.6383L6.75091 7.22085C6.65385 6.74266 6.59983 6.25675 6.5895 5.76894C6.5895 5.40381 6.78158 5.093 7.16576 4.83649C7.5741 4.5736 8.05224 4.4398 8.53781 4.45255H9.30616V0.00729552H7.68714C5.84374 0.00622004 4.37322 0.481047 3.27558 1.43178C2.17794 2.38251 1.62911 3.65319 1.62911 5.24383L1.684 5.81976L1.79376 6.4231L3.08511 12.8131C3.12277 12.9782 3.1685 13.2022 3.22231 13.485C3.27676 13.7697 3.30379 14.059 3.30302 14.3489C3.30248 14.7328 3.10125 15.0619 2.69932 15.3362C2.31299 15.6053 1.85307 15.749 1.38214 15.7476ZM10.2125 0.00567627H18.4166C20.2277 0.00567627 21.7095 0.581599 22.862 1.73344C24.0146 2.88529 24.5908 4.35709 24.5908 6.14885C24.5908 7.9234 24.0057 9.37692 22.8354 10.5094C21.6651 11.6419 20.1648 12.2087 18.3343 12.2097H14.959V19.9984H10.2117L10.2125 0.00567627ZM14.959 8.09602H18.005C19.1946 8.09602 19.7892 7.46524 19.7886 6.2037C19.7886 5.56379 19.6288 5.061 19.3092 4.69533C18.9896 4.32967 18.5369 4.14683 17.9509 4.14683H14.959V8.09602ZM34.2089 4.07989C34.5751 3.99626 34.9464 3.93671 35.3203 3.90162L35.3187 0.00567627C34.7715 0.00567627 34.2872 0.0239596 33.8659 0.0605261C33.4446 0.0970926 33.065 0.14764 32.7271 0.212169C32.378 0.279142 32.0341 0.371063 31.6981 0.487225C31.3692 0.597717 31.0483 0.730582 30.7377 0.884886C30.0436 1.23254 29.2381 1.76652 28.3228 2.48844C27.4076 3.21036 26.594 4.00487 25.8806 5.46888C25.1813 6.87383 24.8152 8.42082 24.8104 9.98998C24.8056 11.5591 25.1624 13.1083 25.8531 14.5175C26.5478 15.9527 27.371 17.0467 28.3228 17.7996C29.0992 18.4135 29.9478 18.9301 30.8498 19.3378C31.5662 19.6696 32.0745 19.7766 32.6673 19.9013L32.753 19.9194C33.0847 19.9928 33.5835 20 34.0225 20H35.2848L35.3203 15.9549C34.4239 15.8462 33.8385 15.7188 33.5641 15.5725L32.686 15.1353L31.6706 14.4521C31.2789 14.1762 30.959 13.8106 30.7377 13.3858L30.3535 12.5655L30.1614 11.9645H35.3203V7.87823H30.1614L30.573 6.91836C30.6279 6.82748 30.7194 6.67665 30.8474 6.46585C30.9904 6.23345 31.1461 6.00914 31.3139 5.79394C31.7281 5.27269 32.2657 4.8627 32.8781 4.60096C33.5183 4.31811 33.962 4.14441 34.2089 4.07989ZM45.0555 4.55982L46.2661 4.4227V0.00729121C45.2825 0.00567799 44.5618 0.0737023 44.1039 0.211364C43.646 0.349027 43.3121 0.454156 43.1023 0.526751C42.8362 0.623288 42.5752 0.733126 42.3202 0.855849C41.8218 1.05608 41.3439 1.30406 40.8933 1.59632L39.2194 2.8869C38.451 3.5088 37.7327 4.26702 37.0652 5.65682C36.3997 7.02495 36.0552 8.52678 36.058 10.048C36.058 11.529 36.4083 12.9825 37.1008 14.4086C37.7932 15.8347 38.5923 16.9268 39.4881 17.6859C40.384 18.4449 41.2032 18.8337 41.9441 19.1805C42.6845 19.5273 43.3751 19.7376 44.0159 19.8113L45.3331 19.9726L46.2661 20V15.7766L44.9965 15.5298L43.6245 14.9813C43.0391 14.6882 42.5085 14.222 42.0329 13.5826C41.2097 12.5953 40.798 11.4435 40.798 10.1271C40.7986 9.26797 40.9916 8.41991 41.363 7.64512C41.738 6.85034 42.1725 6.25156 42.6665 5.84879C43.2529 5.39225 43.6834 5.09057 43.9578 4.94377C44.2955 4.74617 44.6682 4.61579 45.0555 4.55982ZM47.2297 0.0072937H51.9771V20H47.2297V0.0072937ZM54.9407 1.92704C53.6235 3.20686 52.9649 4.91635 52.9649 7.05549V20H57.7106V13.4181H62.65V20H67.3989V7.05549C67.3989 4.89806 66.7449 3.18401 65.4369 1.91332C64.1289 0.642637 62.3772 0.0072937 60.1819 0.0072937C58.0049 0.0072937 56.2579 0.647208 54.9407 1.92704ZM62.65 6.64734V9.55115H57.7122L57.7114 6.64734C57.7114 5.86062 57.9447 5.22528 58.4112 4.74131C58.8777 4.25734 59.4677 4.01536 60.1811 4.01536C60.95 4.01536 61.5537 4.25734 61.9922 4.74131C62.4308 5.22528 62.65 5.86062 62.65 6.64734ZM73.3528 20C71.962 20 70.782 19.5064 69.8129 18.5191C68.8439 17.5318 68.3596 16.3525 68.3602 14.9813V0.0072937H73.1075V14.3505C73.1075 14.863 73.263 15.2744 73.574 15.5846C73.885 15.8949 74.3057 16.0503 74.8363 16.0508H77.7725V20.0033L73.3528 20ZM91.1621 0.0072937H86.4148V20H91.1621V0.0072937ZM92.0128 0.0072937H104.883V3.9597H100.825V20.0033H96.0781V3.95648H92.0168L92.0128 0.0072937Z" fill="black"/>
<path fill-rule="evenodd" clip-rule="evenodd" d="M116.989 1.59066C115.945 2.65109 115.422 3.92177 115.422 5.40272L115.415 20H120.163V5.89636C120.157 5.66473 120.2 5.43448 120.287 5.21985C120.374 5.00521 120.505 4.81077 120.67 4.64853C120.824 4.48698 121.009 4.35862 121.214 4.27136C121.42 4.1841 121.641 4.1398 121.864 4.14117C122.358 4.14063 122.747 4.30975 123.03 4.64853C123.314 4.98731 123.455 5.4124 123.455 5.92379V20H128.203V5.92379C128.189 5.45137 128.363 4.9927 128.687 4.64853C128.839 4.48413 129.023 4.35385 129.229 4.26637C129.435 4.17889 129.657 4.13621 129.881 4.14117C130.342 4.14795 130.782 4.33583 131.106 4.66424C131.43 4.99265 131.612 5.43522 131.612 5.89636V20.0024H136.359V5.40272C136.36 3.88521 135.838 2.60538 134.793 1.56323C133.747 0.521089 132.483 1.55222e-05 130.999 1.55222e-05C129.607 1.55222e-05 128.554 0.301689 127.84 0.905037L126.548 2.05688L125.889 2.90705L125.201 2.02946L124.405 1.28898C124.075 0.978169 123.575 0.685638 122.907 0.411389C122.241 0.138082 121.528 -0.0016956 120.808 1.55222e-05C119.306 1.55222e-05 118.033 0.53023 116.989 1.59066ZM114.481 3.90161C114.107 3.9367 113.736 3.99625 113.37 4.07987C113.123 4.1444 112.679 4.31809 112.039 4.60095C111.427 4.86269 110.889 5.27268 110.475 5.79393C110.307 6.00913 110.151 6.23344 110.009 6.46584C109.88 6.67663 109.789 6.82747 109.734 6.91835L109.322 7.87822H114.481V11.9645H109.322L109.515 12.5655L109.899 13.3858C110.121 13.8107 110.441 14.1764 110.833 14.4521L111.849 15.1353L112.727 15.5725C113.001 15.7188 113.587 15.8462 114.483 15.9548L114.448 20H113.185C112.746 20 112.247 19.9928 111.916 19.9194L111.831 19.9016C111.237 19.7767 110.729 19.6698 110.013 19.3378C109.11 18.9303 108.262 18.4137 107.486 17.7996C106.534 17.0467 105.711 15.9527 105.016 14.5175C104.325 13.1083 103.968 11.5591 103.973 9.98996C103.978 8.42081 104.344 6.87382 105.043 5.46886C105.757 4.00486 106.57 3.21035 107.486 2.48843C108.401 1.76651 109.205 1.2293 109.9 0.88165C110.211 0.727346 110.532 0.594483 110.861 0.48399C111.197 0.367829 111.541 0.275907 111.89 0.208934C112.228 0.144405 112.608 0.0938577 113.029 0.0572912C113.449 0.0207247 113.934 0.00244141 114.481 0.00244141V3.90161ZM138.195 15.7476H137.316L137.312 19.9992H139.098C140.91 19.9992 142.388 19.6887 143.486 18.8474C144.583 18.0064 145.132 16.9276 145.132 15.6112L145.051 14.6514L144.914 13.6367L143.57 7.21923C143.473 6.74105 143.419 6.25514 143.408 5.76732C143.408 5.4022 143.6 5.09138 143.985 4.83488C144.393 4.57198 144.871 4.43818 145.357 4.45093H146.125V0.00567627H144.506C142.658 0.00567627 141.186 0.481041 140.088 1.43177C138.99 2.3825 138.441 3.65319 138.441 5.24383L138.496 5.81975L138.606 6.4231L139.897 12.8131C139.935 12.9782 139.981 13.2022 140.035 13.485C140.089 13.7697 140.116 14.059 140.115 14.3489C140.115 14.7328 139.914 15.0619 139.512 15.3362C139.125 15.6053 138.665 15.749 138.195 15.7476ZM1.38214 15.7476H0.504028V20.0008H2.28044C4.09155 20.0008 5.56933 19.6903 6.66698 18.849C7.76462 18.008 8.31344 16.9293 8.31344 15.6129L8.23273 14.653L8.09553 13.6383L6.75091 7.22085C6.65385 6.74266 6.59983 6.25675 6.5895 5.76894C6.5895 5.40381 6.78158 5.093 7.16576 4.83649C7.5741 4.5736 8.05224 4.4398 8.53781 4.45255H9.30616V0.00729552H7.68714C5.84374 0.00622004 4.37322 0.481047 3.27558 1.43178C2.17794 2.38251 1.62911 3.65319 1.62911 5.24383L1.684 5.81976L1.79376 6.4231L3.08511 12.8131C3.12277 12.9782 3.1685 13.2022 3.22231 13.485C3.27676 13.7697 3.30379 14.059 3.30302 14.3489C3.30248 14.7328 3.10125 15.0619 2.69932 15.3362C2.31299 15.6053 1.85307 15.749 1.38214 15.7476ZM10.2125 0.00567627H18.4166C20.2277 0.00567627 21.7095 0.581599 22.862 1.73344C24.0146 2.88529 24.5908 4.35709 24.5908 6.14885C24.5908 7.9234 24.0057 9.37692 22.8354 10.5094C21.6651 11.6419 20.1648 12.2087 18.3343 12.2097H14.959V19.9984H10.2117L10.2125 0.00567627ZM14.959 8.09602H18.005C19.1946 8.09602 19.7892 7.46524 19.7886 6.2037C19.7886 5.56379 19.6288 5.061 19.3092 4.69533C18.9896 4.32967 18.5369 4.14683 17.9509 4.14683H14.959V8.09602ZM34.2089 4.07989C34.5751 3.99626 34.9464 3.93671 35.3203 3.90162L35.3187 0.00567627C34.7715 0.00567627 34.2872 0.0239596 33.8659 0.0605261C33.4446 0.0970926 33.065 0.14764 32.7271 0.212169C32.378 0.279142 32.0341 0.371063 31.6981 0.487225C31.3692 0.597717 31.0483 0.730582 30.7377 0.884886C30.0436 1.23254 29.2381 1.76652 28.3228 2.48844C27.4076 3.21036 26.594 4.00487 25.8806 5.46888C25.1813 6.87383 24.8152 8.42082 24.8104 9.98998C24.8056 11.5591 25.1624 13.1083 25.8531 14.5175C26.5478 15.9527 27.371 17.0467 28.3228 17.7996C29.0992 18.4135 29.9478 18.9301 30.8498 19.3378C31.5662 19.6696 32.0745 19.7766 32.6673 19.9013L32.753 19.9194C33.0847 19.9928 33.5835 20 34.0225 20H35.2848L35.3203 15.9549C34.4239 15.8462 33.8385 15.7188 33.5641 15.5725L32.686 15.1353L31.6706 14.4521C31.2789 14.1762 30.959 13.8106 30.7377 13.3858L30.3535 12.5655L30.1614 11.9645H35.3203V7.87823H30.1614L30.573 6.91836C30.6279 6.82748 30.7194 6.67665 30.8474 6.46585C30.9904 6.23345 31.1461 6.00914 31.3139 5.79394C31.7281 5.27269 32.2657 4.8627 32.8781 4.60096C33.5183 4.31811 33.962 4.14441 34.2089 4.07989ZM45.0555 4.55982L46.2661 4.4227V0.00729121C45.2825 0.00567799 44.5618 0.0737023 44.1039 0.211364C43.646 0.349027 43.3121 0.454156 43.1023 0.526751C42.8362 0.623288 42.5752 0.733126 42.3202 0.855849C41.8218 1.05608 41.3439 1.30406 40.8933 1.59632L39.2194 2.8869C38.451 3.5088 37.7327 4.26702 37.0652 5.65682C36.3997 7.02495 36.0552 8.52678 36.058 10.048C36.058 11.529 36.4083 12.9825 37.1008 14.4086C37.7932 15.8347 38.5923 16.9268 39.4881 17.6859C40.384 18.4449 41.2032 18.8337 41.9441 19.1805C42.6845 19.5273 43.3751 19.7376 44.0159 19.8113L45.3331 19.9726L46.2661 20V15.7766L44.9965 15.5298L43.6245 14.9813C43.0391 14.6882 42.5085 14.222 42.0329 13.5826C41.2097 12.5953 40.798 11.4435 40.798 10.1271C40.7986 9.26797 40.9916 8.41991 41.363 7.64512C41.738 6.85034 42.1725 6.25156 42.6665 5.84879C43.2529 5.39225 43.6834 5.09057 43.9578 4.94377C44.2955 4.74617 44.6682 4.61579 45.0555 4.55982ZM47.2297 0.0072937H51.9771V20H47.2297V0.0072937ZM54.9407 1.92704C53.6235 3.20686 52.9649 4.91635 52.9649 7.05549V20H57.7106V13.4181H62.65V20H67.3989V7.05549C67.3989 4.89806 66.7449 3.18401 65.4369 1.91332C64.1289 0.642637 62.3772 0.0072937 60.1819 0.0072937C58.0049 0.0072937 56.2579 0.647208 54.9407 1.92704ZM62.65 6.64734V9.55115H57.7122L57.7114 6.64734C57.7114 5.86062 57.9447 5.22528 58.4112 4.74131C58.8777 4.25734 59.4677 4.01536 60.1811 4.01536C60.95 4.01536 61.5537 4.25734 61.9922 4.74131C62.4308 5.22528 62.65 5.86062 62.65 6.64734ZM73.3528 20C71.962 20 70.782 19.5064 69.8129 18.5191C68.8439 17.5318 68.3596 16.3525 68.3602 14.9813V0.0072937H73.1075V14.3505C73.1075 14.863 73.263 15.2744 73.574 15.5846C73.885 15.8949 74.3057 16.0503 74.8363 16.0508H77.7725V20.0033L73.3528 20ZM91.1621 0.0072937H86.4148V20H91.1621V0.0072937ZM92.0128 0.0072937H104.883V3.9597H100.825V20.0033H96.0781V3.95648H92.0168L92.0128 0.0072937Z" fill="white"/>
<path fill-rule="evenodd" clip-rule="evenodd" d="M116.989 1.59066C115.945 2.65109 115.422 3.92177 115.422 5.40272L115.415 20H120.163V5.89636C120.157 5.66473 120.2 5.43448 120.287 5.21985C120.374 5.00521 120.505 4.81077 120.67 4.64853C120.824 4.48698 121.009 4.35862 121.214 4.27136C121.42 4.1841 121.641 4.1398 121.864 4.14117C122.358 4.14063 122.747 4.30975 123.03 4.64853C123.314 4.98731 123.455 5.4124 123.455 5.92379V20H128.203V5.92379C128.189 5.45137 128.363 4.9927 128.687 4.64853C128.839 4.48413 129.023 4.35385 129.229 4.26637C129.435 4.17889 129.657 4.13621 129.881 4.14117C130.342 4.14795 130.782 4.33583 131.106 4.66424C131.43 4.99265 131.612 5.43522 131.612 5.89636V20.0024H136.359V5.40272C136.36 3.88521 135.838 2.60538 134.793 1.56323C133.747 0.521089 132.483 1.55222e-05 130.999 1.55222e-05C129.607 1.55222e-05 128.554 0.301689 127.84 0.905037L126.548 2.05688L125.889 2.90705L125.201 2.02946L124.405 1.28898C124.075 0.978169 123.575 0.685638 122.907 0.411389C122.241 0.138082 121.528 -0.0016956 120.808 1.55222e-05C119.306 1.55222e-05 118.033 0.53023 116.989 1.59066ZM114.481 3.90161C114.107 3.9367 113.736 3.99625 113.37 4.07987C113.123 4.1444 112.679 4.31809 112.039 4.60095C111.427 4.86269 110.889 5.27268 110.475 5.79393C110.307 6.00913 110.151 6.23344 110.009 6.46584C109.88 6.67663 109.789 6.82747 109.734 6.91835L109.322 7.87822H114.481V11.9645H109.322L109.515 12.5655L109.899 13.3858C110.121 13.8107 110.441 14.1764 110.833 14.4521L111.849 15.1353L112.727 15.5725C113.001 15.7188 113.587 15.8462 114.483 15.9548L114.448 20H113.185C112.746 20 112.247 19.9928 111.916 19.9194L111.831 19.9016C111.237 19.7767 110.729 19.6698 110.013 19.3378C109.11 18.9303 108.262 18.4137 107.486 17.7996C106.534 17.0467 105.711 15.9527 105.016 14.5175C104.325 13.1083 103.968 11.5591 103.973 9.98996C103.978 8.42081 104.344 6.87382 105.043 5.46886C105.757 4.00486 106.57 3.21035 107.486 2.48843C108.401 1.76651 109.205 1.2293 109.9 0.88165C110.211 0.727346 110.532 0.594483 110.861 0.48399C111.197 0.367829 111.541 0.275907 111.89 0.208934C112.228 0.144405 112.608 0.0938577 113.029 0.0572912C113.449 0.0207247 113.934 0.00244141 114.481 0.00244141V3.90161ZM138.195 15.7476H137.316L137.312 19.9992H139.098C140.91 19.9992 142.388 19.6887 143.486 18.8474C144.583 18.0064 145.132 16.9276 145.132 15.6112L145.051 14.6514L144.914 13.6367L143.57 7.21923C143.473 6.74105 143.419 6.25514 143.408 5.76732C143.408 5.4022 143.6 5.09138 143.985 4.83488C144.393 4.57198 144.871 4.43818 145.357 4.45093H146.125V0.00567627H144.506C142.658 0.00567627 141.186 0.481041 140.088 1.43177C138.99 2.3825 138.441 3.65319 138.441 5.24383L138.496 5.81975L138.606 6.4231L139.897 12.8131C139.935 12.9782 139.981 13.2022 140.035 13.485C140.089 13.7697 140.116 14.059 140.115 14.3489C140.115 14.7328 139.914 15.0619 139.512 15.3362C139.125 15.6053 138.665 15.749 138.195 15.7476ZM1.38214 15.7476H0.504028V20.0008H2.28044C4.09155 20.0008 5.56933 19.6903 6.66698 18.849C7.76462 18.008 8.31344 16.9293 8.31344 15.6129L8.23273 14.653L8.09553 13.6383L6.75091 7.22085C6.65385 6.74266 6.59983 6.25675 6.5895 5.76894C6.5895 5.40381 6.78158 5.093 7.16576 4.83649C7.5741 4.5736 8.05224 4.4398 8.53781 4.45255H9.30616V0.00729552H7.68714C5.84374 0.00622004 4.37322 0.481047 3.27558 1.43178C2.17794 2.38251 1.62911 3.65319 1.62911 5.24383L1.684 5.81976L1.79376 6.4231L3.08511 12.8131C3.12277 12.9782 3.1685 13.2022 3.22231 13.485C3.27676 13.7697 3.30379 14.059 3.30302 14.3489C3.30248 14.7328 3.10125 15.0619 2.69932 15.3362C2.31299 15.6053 1.85307 15.749 1.38214 15.7476ZM10.2125 0.00567627H18.4166C20.2277 0.00567627 21.7095 0.581599 22.862 1.73344C24.0146 2.88529 24.5908 4.35709 24.5908 6.14885C24.5908 7.9234 24.0057 9.37692 22.8354 10.5094C21.6651 11.6419 20.1648 12.2087 18.3343 12.2097H14.959V19.9984H10.2117L10.2125 0.00567627ZM14.959 8.09602H18.005C19.1946 8.09602 19.7892 7.46524 19.7886 6.2037C19.7886 5.56379 19.6288 5.061 19.3092 4.69533C18.9896 4.32967 18.5369 4.14683 17.9509 4.14683H14.959V8.09602ZM34.2089 4.07989C34.5751 3.99626 34.9464 3.93671 35.3203 3.90162L35.3187 0.00567627C34.7715 0.00567627 34.2872 0.0239596 33.8659 0.0605261C33.4446 0.0970926 33.065 0.14764 32.7271 0.212169C32.378 0.279142 32.0341 0.371063 31.6981 0.487225C31.3692 0.597717 31.0483 0.730582 30.7377 0.884886C30.0436 1.23254 29.2381 1.76652 28.3228 2.48844C27.4076 3.21036 26.594 4.00487 25.8806 5.46888C25.1813 6.87383 24.8152 8.42082 24.8104 9.98998C24.8056 11.5591 25.1624 13.1083 25.8531 14.5175C26.5478 15.9527 27.371 17.0467 28.3228 17.7996C29.0992 18.4135 29.9478 18.9301 30.8498 19.3378C31.5662 19.6696 32.0745 19.7766 32.6673 19.9013L32.753 19.9194C33.0847 19.9928 33.5835 20 34.0225 20H35.2848L35.3203 15.9549C34.4239 15.8462 33.8385 15.7188 33.5641 15.5725L32.686 15.1353L31.6706 14.4521C31.2789 14.1762 30.959 13.8106 30.7377 13.3858L30.3535 12.5655L30.1614 11.9645H35.3203V7.87823H30.1614L30.573 6.91836C30.6279 6.82748 30.7194 6.67665 30.8474 6.46585C30.9904 6.23345 31.1461 6.00914 31.3139 5.79394C31.7281 5.27269 32.2657 4.8627 32.8781 4.60096C33.5183 4.31811 33.962 4.14441 34.2089 4.07989ZM45.0555 4.55982L46.2661 4.4227V0.00729121C45.2825 0.00567799 44.5618 0.0737023 44.1039 0.211364C43.646 0.349027 43.3121 0.454156 43.1023 0.526751C42.8362 0.623288 42.5752 0.733126 42.3202 0.855849C41.8218 1.05608 41.3439 1.30406 40.8933 1.59632L39.2194 2.8869C38.451 3.5088 37.7327 4.26702 37.0652 5.65682C36.3997 7.02495 36.0552 8.52678 36.058 10.048C36.058 11.529 36.4083 12.9825 37.1008 14.4086C37.7932 15.8347 38.5923 16.9268 39.4881 17.6859C40.384 18.4449 41.2032 18.8337 41.9441 19.1805C42.6845 19.5273 43.3751 19.7376 44.0159 19.8113L45.3331 19.9726L46.2661 20V15.7766L44.9965 15.5298L43.6245 14.9813C43.0391 14.6882 42.5085 14.222 42.0329 13.5826C41.2097 12.5953 40.798 11.4435 40.798 10.1271C40.7986 9.26797 40.9916 8.41991 41.363 7.64512C41.738 6.85034 42.1725 6.25156 42.6665 5.84879C43.2529 5.39225 43.6834 5.09057 43.9578 4.94377C44.2955 4.74617 44.6682 4.61579 45.0555 4.55982ZM47.2297 0.0072937H51.9771V20H47.2297V0.0072937ZM54.9407 1.92704C53.6235 3.20686 52.9649 4.91635 52.9649 7.05549V20H57.7106V13.4181H62.65V20H67.3989V7.05549C67.3989 4.89806 66.7449 3.18401 65.4369 1.91332C64.1289 0.642637 62.3772 0.0072937 60.1819 0.0072937C58.0049 0.0072937 56.2579 0.647208 54.9407 1.92704ZM62.65 6.64734V9.55115H57.7122L57.7114 6.64734C57.7114 5.86062 57.9447 5.22528 58.4112 4.74131C58.8777 4.25734 59.4677 4.01536 60.1811 4.01536C60.95 4.01536 61.5537 4.25734 61.9922 4.74131C62.4308 5.22528 62.65 5.86062 62.65 6.64734ZM73.3528 20C71.962 20 70.782 19.5064 69.8129 18.5191C68.8439 17.5318 68.3596 16.3525 68.3602 14.9813V0.0072937H73.1075V14.3505C73.1075 14.863 73.263 15.2744 73.574 15.5846C73.885 15.8949 74.3057 16.0503 74.8363 16.0508H77.7725V20.0033L73.3528 20ZM91.1621 0.0072937H86.4148V20H91.1621V0.0072937ZM92.0128 0.0072937H104.883V3.9597H100.825V20.0033H96.0781V3.95648H92.0168L92.0128 0.0072937Z" fill="url(#paint0_linear_137_2346)"/>
</g>
<defs>
<linearGradient id="paint0_linear_137_2346" x1="-7.63389e-06" y1="10" x2="146.5" y2="10" gradientUnits="userSpaceOnUse">
<stop stop-color="#DE4019"/>
<stop offset="1" stop-color="#4EB6B7"/>
</linearGradient>
<clipPath id="clip0_137_2346">
<rect width="146" height="20" fill="white" transform="translate(0.5)"/>
</clipPath>
</defs>
</svg>
