<svg width="79" height="16" viewBox="0 0 79 16" fill="none" xmlns="http://www.w3.org/2000/svg">
<path d="M0.383203 15H6.8832C9.1232 15 10.9632 13.16 10.9632 10.9C10.9632 9.88 10.6032 8.94 9.9232 8.3C9.6832 8.04 9.5032 7.9 9.0432 7.68C9.5432 7.32 9.7032 7.18 9.9632 6.88C10.2032 6.56 10.4032 6.22 10.5232 5.86C10.6832 5.42 10.7632 4.94 10.7632 4.5C10.7632 2.28 9.0632 0.58 6.9032 0.58H0.383203V15ZM3.9432 3.46H6.0232C6.7432 3.46 7.3032 4.1 7.3032 4.88C7.3032 5.66 6.7232 6.32 6.0832 6.32H3.9432V3.46ZM3.9432 9.12H6.1032C6.8232 9.12 7.4832 9.82 7.4832 10.64C7.4832 11.46 6.8632 12.12 6.0832 12.12H3.9432V9.12ZM19.4238 0.279999C17.7838 0.3 17.1038 0.419999 16.1038 0.899999C15.6038 1.14 15.1238 1.44 14.7038 1.76C12.8638 3.24 11.7638 5.48 11.7638 7.78C11.7638 10.04 12.8438 12.28 14.6638 13.72C15.5838 14.44 16.7238 14.98 17.7038 15.12C18.1238 15.2 18.7038 15.24 19.4238 15.26V12.14C18.7238 12.06 18.4438 12 18.0038 11.78C17.6438 11.62 17.3238 11.46 17.0438 11.24C16.5638 10.88 16.1438 10.36 15.9238 9.9C15.8438 9.72 15.7438 9.5 15.6638 9.22H19.4238V6.24H15.6638C15.8838 5.62 16.0238 5.36 16.2638 5.04C16.7238 4.44 17.3238 4 18.0038 3.7C18.4438 3.5 18.7238 3.44 19.4238 3.34V0.279999ZM26.0607 15.02C26.7207 15.12 27.0207 15.16 27.3807 15.16C30.0007 15.16 31.7607 13.86 31.7607 11.88C31.7607 11.44 31.6807 10.96 31.6007 10.44L30.6207 5.76C30.5407 5.36 30.5007 4.98 30.5007 4.7C30.5007 4.18 31.1607 3.74 31.9207 3.74C32.0807 3.74 32.2207 3.76 32.4807 3.82V0.599999C31.9007 0.519999 31.6407 0.5 31.3007 0.5C28.6007 0.5 26.8807 1.96 26.8807 4.32C26.8807 4.6 26.9407 4.9 27.0007 5.18L27.9407 9.84C28.0407 10.32 28.1007 10.72 28.1007 10.96C28.1007 11.52 27.4407 11.98 26.7007 11.98C26.5207 11.98 26.3607 11.96 26.0607 11.84V15.02ZM33.4496 0.58V15H36.9096V8.62H40.4696V15H43.9296V0.58H40.4696V5.74H36.9096V0.58H33.4496ZM45.1293 15H48.5893V10.1H52.1893V15H55.6493V5.46C55.6493 2.32 53.5893 0.319999 50.3893 0.319999C47.1893 0.319999 45.1293 2.32 45.1293 5.46V15ZM48.5893 5.16C48.5893 4 49.3093 3.24 50.3893 3.24C51.4693 3.24 52.1893 4 52.1893 5.16V7.28H48.5893V5.16ZM56.848 15H60.308V9.4H62.428C63.208 9.4 63.828 10.2 63.828 11.22V15H67.288V10.48C67.288 9.78 67.088 9.16 66.668 8.68C66.408 8.4 66.208 8.26 65.668 8.02C66.068 7.7 66.208 7.54 66.408 7.26C66.988 6.52 67.288 5.62 67.288 4.68C67.288 2.4 65.468 0.58 63.108 0.58H56.848V15ZM60.308 3.46H62.408C63.168 3.46 63.788 4.14 63.788 4.94C63.788 5.76 63.168 6.42 62.388 6.42L60.308 6.44V3.46ZM68.5082 15H71.9682V9.48H74.4282C77.1282 9.48 78.9882 7.64 78.9882 5.06C78.9882 2.44 77.1282 0.58 74.4882 0.58H68.5082V15ZM71.9682 3.6H74.1482C74.9882 3.6 75.4882 4.18 75.4882 5.1C75.4882 5.98 75.0282 6.48 74.1882 6.48H71.9682V3.6Z" fill="white"/>
</svg>
