<svg width="13" height="13" viewBox="0 0 13 13" fill="none" xmlns="http://www.w3.org/2000/svg">
<path d="M3.99161 1.97725L4.37655 2.29634L4.37667 2.2962L3.99161 1.97725ZM9.01469 2.05397L9.40552 1.74211L9.40538 1.74194L9.01469 2.05397ZM9.91255 5.15756L9.41324 5.18369L9.43447 5.58954L9.8361 5.65168L9.91255 5.15756ZM9.96112 5.16508L9.88466 5.6592L9.88594 5.65939L9.96112 5.16508ZM9.97167 5.16668L9.89649 5.66102L9.90066 5.66161L9.97167 5.16668ZM10.2799 5.21765L10.1831 5.70818L10.1835 5.70827L10.2799 5.21765ZM11.6381 6.27134L12.1151 6.12123L12.1149 6.12086L11.6381 6.27134ZM11.4861 7.29767L11.0863 6.99742L11.0862 6.99758L11.4861 7.29767ZM10.8537 7.76819L10.6466 7.31311L10.644 7.31429L10.8537 7.76819ZM10.5898 7.87816L10.4075 7.41256L9.9531 7.59045L10.1199 8.04906L10.5898 7.87816ZM11.4418 9.36483L11.8417 9.06471L11.8415 9.06446L11.4418 9.36483ZM11.5141 10.7286L11.9665 10.9414L11.9667 10.9411L11.5141 10.7286ZM10.3846 11.1006L10.3627 10.6011L10.3626 10.6011L10.3846 11.1006ZM9.44024 11.2052L9.34923 10.7135L9.34873 10.7136L9.44024 11.2052ZM8.91501 11.379L9.10735 11.8405L9.10833 11.8401L8.91501 11.379ZM8.57065 11.5306L8.77669 11.9861L8.77672 11.9861L8.57065 11.5306ZM8.54867 11.5405L8.34263 11.0849L8.34193 11.0852L8.54867 11.5405ZM8.22405 11.6854L8.02462 11.2269L8.0239 11.2272L8.22405 11.6854ZM4.66102 11.6854L4.86117 11.2272L4.86045 11.2269L4.66102 11.6854ZM4.3364 11.5405L4.12824 11.9951L4.12874 11.9953L4.3364 11.5405ZM3.97006 11.379L4.16523 10.9187L4.16339 10.9179L3.97006 11.379ZM3.44485 11.2047L3.53635 10.7131L3.53586 10.713L3.44485 11.2047ZM2.49998 11.1006L2.5219 10.6011L2.52186 10.6011L2.49998 11.1006ZM1.46686 10.7286L1.91959 10.5164L1.91947 10.5161L1.46686 10.7286ZM1.53918 9.36483L1.13933 9.06462L1.13927 9.06471L1.53918 9.36483ZM2.3943 7.86798L2.86469 8.03748L3.02845 7.58304L2.57992 7.40371L2.3943 7.86798ZM2.15729 7.7655L1.94243 8.217L1.94622 8.21877L2.15729 7.7655ZM1.5434 7.3068L1.14981 7.61516L1.15042 7.61594L1.5434 7.3068ZM1.32908 6.32445L1.81858 6.42641L1.81866 6.42599L1.32908 6.32445ZM2.66668 5.21711L2.57461 4.72566L2.57261 4.72604L2.66668 5.21711ZM2.98603 5.16614L3.05708 5.66107L3.05794 5.66094L2.98603 5.16614ZM3.0045 5.16346L2.93325 4.66856L2.93259 4.66866L3.0045 5.16346ZM3.06784 5.15434L3.1391 5.64923L3.54839 5.5903L3.56732 5.17723L3.06784 5.15434ZM4.37667 2.2962C4.8783 1.69058 5.59922 1.42859 6.49999 1.42859V0.428589C5.39913 0.428589 4.35276 0.75741 3.60655 1.6583L4.37667 2.2962ZM6.49999 1.42859C7.3997 1.42859 8.12261 1.73822 8.624 2.366L9.40538 1.74194C8.68214 0.836391 7.64835 0.428589 6.49999 0.428589V1.42859ZM8.62387 2.36583C8.83302 2.62794 9.0213 3.05963 9.16361 3.58991C9.30329 4.11033 9.38693 4.68098 9.41324 5.18369L10.4119 5.13143C10.3822 4.56489 10.2888 3.92443 10.1294 3.3307C9.97273 2.74684 9.74005 2.16136 9.40552 1.74211L8.62387 2.36583ZM9.8361 5.65168L9.88467 5.6592L10.0376 4.67096L9.98901 4.66344L9.8361 5.65168ZM9.88594 5.65939L9.89649 5.661L10.0469 4.67237L10.0363 4.67076L9.88594 5.65939ZM9.90066 5.66161C9.98843 5.67421 10.085 5.68881 10.1831 5.70818L10.3768 4.72713C10.2521 4.7025 10.1344 4.68491 10.0427 4.67175L9.90066 5.66161ZM10.1835 5.70827C10.5747 5.78513 11.0097 5.94148 11.1613 6.42181L12.1149 6.12086C11.782 5.06572 10.8097 4.81219 10.3764 4.72703L10.1835 5.70827ZM11.1612 6.42145C11.2381 6.66579 11.1947 6.85309 11.0863 6.99742L11.8859 7.59791C12.203 7.17569 12.281 6.64837 12.1151 6.12123L11.1612 6.42145ZM11.0862 6.99758C10.9803 7.13867 10.8133 7.2372 10.6466 7.31312L11.0609 8.22325C11.2689 8.12857 11.6256 7.94488 11.886 7.59775L11.0862 6.99758ZM10.644 7.31429C10.5665 7.35011 10.4867 7.38159 10.4075 7.41256L10.772 8.34376C10.8492 8.31358 10.9552 8.2721 11.0634 8.22209L10.644 7.31429ZM10.1199 8.04906C10.326 8.61564 10.6751 9.17692 11.042 9.6652L11.8415 9.06446C11.5053 8.61708 11.2189 8.14503 11.0597 7.70727L10.1199 8.04906ZM11.0418 9.66495C11.215 9.89574 11.1936 10.2346 11.0615 10.5161L11.9667 10.9411C12.1765 10.4941 12.3304 9.71593 11.8417 9.06471L11.0418 9.66495ZM11.0616 10.5159C11.0594 10.5206 11.0576 10.5235 11.0566 10.5251C11.0561 10.5259 11.0557 10.5265 11.0555 10.5268C11.0553 10.5271 11.0552 10.5273 11.0551 10.5273C11.0551 10.5273 11.0552 10.5272 11.0553 10.5271C11.0554 10.527 11.0555 10.5269 11.0556 10.5268C11.0558 10.5266 11.0556 10.5268 11.0548 10.5274C11.0514 10.5297 11.0316 10.5423 10.9754 10.5552C10.8398 10.5864 10.6684 10.5877 10.3627 10.6011L10.4064 11.6001C10.6402 11.5899 10.9478 11.5876 11.1992 11.5299C11.4891 11.4633 11.7952 11.3057 11.9665 10.9414L11.0616 10.5159ZM10.3626 10.6011C10.0383 10.6153 9.69448 10.6496 9.34923 10.7135L9.53124 11.6968C9.82364 11.6427 10.1206 11.6127 10.4065 11.6001L10.3626 10.6011ZM9.34873 10.7136C9.15178 10.7503 8.94286 10.8252 8.72168 10.9179L9.10833 11.8401C9.30943 11.7558 9.44048 11.7137 9.53174 11.6967L9.34873 10.7136ZM8.72266 10.9175C8.59598 10.9703 8.47997 11.0228 8.36458 11.075L8.77672 11.9861C8.8939 11.9331 8.99662 11.8867 9.10735 11.8405L8.72266 10.9175ZM8.36461 11.075L8.34263 11.0849L8.75471 11.9961L8.77669 11.9861L8.36461 11.075ZM8.34193 11.0852C8.24329 11.13 8.14172 11.1759 8.02462 11.2269L8.42348 12.1439C8.54813 12.0897 8.65558 12.0411 8.75542 11.9958L8.34193 11.0852ZM8.0239 11.2272C7.56833 11.4262 7.08583 11.5714 6.49999 11.5714V12.5714C7.26545 12.5714 7.88739 12.3781 8.4242 12.1436L8.0239 11.2272ZM6.49999 11.5714C5.90126 11.5714 5.30205 11.4198 4.86117 11.2272L4.46087 12.1436C5.01236 12.3845 5.7474 12.5714 6.49999 12.5714V11.5714ZM4.86045 11.2269C4.74298 11.1758 4.64076 11.1298 4.54406 11.0857L4.12874 11.9953C4.22945 12.0413 4.33731 12.0898 4.46159 12.1439L4.86045 11.2269ZM4.54455 11.0859C4.41888 11.0284 4.29243 10.9726 4.16523 10.9187L3.7749 11.8394C3.89339 11.8896 4.01118 11.9415 4.12824 11.9951L4.54455 11.0859ZM4.16339 10.9179C3.94331 10.8256 3.73393 10.7499 3.53635 10.7131L3.35335 11.6962C3.44398 11.7131 3.57453 11.7554 3.77674 11.8401L4.16339 10.9179ZM3.53586 10.713C3.1901 10.649 2.84612 10.6153 2.5219 10.6011L2.47806 11.6001C2.7651 11.6127 3.06195 11.6423 3.35384 11.6963L3.53586 10.713ZM2.52186 10.6011C2.37566 10.5947 2.27016 10.5919 2.16954 10.585C2.07178 10.5783 2.01194 10.5693 1.97223 10.5589C1.9368 10.5496 1.93184 10.5428 1.93667 10.5466C1.94276 10.5515 1.93495 10.5492 1.91959 10.5164L1.01414 10.9409C1.08428 11.0905 1.18101 11.2229 1.31263 11.328C1.44299 11.4321 1.58458 11.4911 1.71868 11.5262C1.95513 11.5882 2.24848 11.59 2.4781 11.6001L2.52186 10.6011ZM1.91947 10.5161C1.78729 10.2346 1.76588 9.89574 1.93908 9.66495L1.13927 9.06471C0.65054 9.71593 0.804387 10.4941 1.01426 10.9411L1.91947 10.5161ZM1.93902 9.66503C2.3081 9.17346 2.65912 8.60799 2.86469 8.03748L1.92391 7.69848C1.76526 8.13875 1.47758 8.6141 1.13933 9.06462L1.93902 9.66503ZM2.57992 7.40371C2.50861 7.3752 2.43807 7.3447 2.36836 7.31224L1.94622 8.21877C2.03265 8.25901 2.12017 8.29686 2.20868 8.33225L2.57992 7.40371ZM2.37214 7.31402C2.21097 7.23732 2.04735 7.13873 1.93638 6.99766L1.15042 7.61594C1.40578 7.94056 1.73834 8.11986 1.94244 8.21699L2.37214 7.31402ZM1.93699 6.99844C1.82475 6.85518 1.76799 6.66929 1.81858 6.42641L0.839589 6.2225C0.729711 6.75003 0.853483 7.23694 1.14981 7.61516L1.93699 6.99844ZM1.81866 6.42599C1.9191 5.94176 2.35644 5.78564 2.76076 5.70818L2.57261 4.72604C2.17037 4.8031 1.08112 5.05793 0.839503 6.22291L1.81866 6.42599ZM2.75876 5.70856C2.86151 5.68931 2.96308 5.67456 3.05708 5.66107L2.91498 4.67122C2.82212 4.68455 2.70095 4.70199 2.57461 4.72566L2.75876 5.70856ZM3.05794 5.66094L3.07642 5.65826L2.93259 4.66866L2.91412 4.67134L3.05794 5.66094ZM3.07576 5.65835L3.1391 5.64923L2.99659 4.65944L2.93325 4.66856L3.07576 5.65835ZM3.56732 5.17723C3.59191 4.64075 3.67869 4.05095 3.82307 3.5215C3.97023 2.9819 4.16461 2.55201 4.37655 2.29634L3.60667 1.65815C3.26224 2.07365 3.02087 2.66227 2.8583 3.2584C2.69296 3.8647 2.59604 4.52785 2.56837 5.13144L3.56732 5.17723Z" fill="#111111"/>
</svg>
