<svg width="15" height="15" viewBox="0 0 15 15" fill="none" xmlns="http://www.w3.org/2000/svg">
<path d="M13.1905 7.49998C13.1905 10.5743 10.5747 13.1905 7.5 13.1905V14.1905C11.1271 14.1905 14.1905 11.1265 14.1905 7.49998H13.1905ZM7.5 13.1905C4.42526 13.1905 1.80952 10.5743 1.80952 7.49998H0.809525C0.809525 11.1265 3.87292 14.1905 7.5 14.1905V13.1905ZM1.80952 7.49998C1.80952 4.42572 4.42526 1.80951 7.5 1.80951V0.809509C3.87292 0.809509 0.809525 3.87349 0.809525 7.49998H1.80952ZM7.5 1.80951C10.5747 1.80951 13.1905 4.42572 13.1905 7.49998H14.1905C14.1905 3.87349 11.1271 0.809509 7.5 0.809509V1.80951ZM4.18944 9.83212C5.03713 9.62547 6.08102 9.53503 7.10709 9.63584C8.13637 9.73697 9.11051 10.0267 9.8501 10.5467L10.4253 9.72864C9.49996 9.07804 8.34206 8.75236 7.20488 8.64063C6.06449 8.52859 4.9075 8.62779 3.9526 8.86058L4.18944 9.83212ZM3.89436 7.99233C6.87175 7.46557 8.93272 7.73751 10.6374 8.96123L11.2206 8.14887C9.20824 6.70431 6.83157 6.45715 3.72014 7.00762L3.89436 7.99233ZM3.71005 6.12504C4.87286 5.7142 6.29339 5.54299 7.68999 5.65736C9.08839 5.77188 10.4248 6.16938 11.4394 6.85851L12.0012 6.03129C10.807 5.2201 9.29128 4.78515 7.77161 4.6607C6.25015 4.5361 4.68667 4.7194 3.37692 5.18216L3.71005 6.12504Z" fill="#111111"/>
</svg>
