<svg width="13" height="14" viewBox="0 0 13 14" fill="none" xmlns="http://www.w3.org/2000/svg">
<path d="M7.85714 0V9.59524H8.85714V0H7.85714ZM5.2619 12.1905C3.82859 12.1905 2.66667 11.0285 2.66667 9.59524H1.66667C1.66667 11.5808 3.27631 13.1905 5.2619 13.1905V12.1905ZM7.85714 9.59524C7.85714 11.0285 6.69522 12.1905 5.2619 12.1905V13.1905C7.2475 13.1905 8.85714 11.5808 8.85714 9.59524H7.85714ZM5.2619 6C3.27631 6 1.66667 7.60964 1.66667 9.59524H2.66667C2.66667 8.16193 3.82859 7 5.2619 7V6ZM13 4.45238C10.712 4.45238 8.85714 2.59756 8.85714 0.309524H7.85714C7.85714 3.14985 10.1597 5.45238 13 5.45238V4.45238Z" fill="#111111"/>
</svg>
