<svg width="15" height="13" viewBox="0 0 15 13" fill="none" xmlns="http://www.w3.org/2000/svg">
<path d="M13.6714 1.2381L14.1703 1.20502C14.157 1.00445 14.0249 0.831343 13.8349 0.765598C13.6449 0.699853 13.4341 0.754255 13.2997 0.903695L13.6714 1.2381ZM13.2884 3.85482C13.2884 3.57867 13.0645 3.35482 12.7884 3.35482C12.5122 3.35482 12.2884 3.57867 12.2884 3.85482H13.2884ZM7.5 4.64286V5.14286H8V4.64286H7.5ZM2.19251 1.2381L2.66077 1.06277C2.591 0.876438 2.41739 0.749202 2.21869 0.738784C2.02 0.728366 1.83403 0.836749 1.74516 1.01477L2.19251 1.2381ZM5.64286 9.28572L5.99669 9.63899C6.11905 9.51644 6.16928 9.3393 6.12946 9.17076C6.08965 9.00222 5.96546 8.86629 5.80119 8.81145L5.64286 9.28572ZM1.30952 10.966V10.466C1.08926 10.466 0.894935 10.6101 0.83103 10.8209C0.767125 11.0317 0.848691 11.2595 1.03188 11.3818L1.30952 10.966ZM12.1128 2.09891L11.742 2.43425L11.9221 2.6335L12.1877 2.59327L12.1128 2.09891ZM13.1725 1.27118C13.2179 1.95612 13.1752 2.36448 13.0676 2.66783C12.9637 2.96073 12.782 3.20477 12.4424 3.53015L13.1343 4.25217C13.5244 3.87837 13.8313 3.50596 14.01 3.00216C14.185 2.5088 14.219 1.94022 14.1703 1.20502L13.1725 1.27118ZM13.2884 4.49915V3.89116H12.2884V4.49915H13.2884ZM13.2884 3.89116V3.85482H12.2884V3.89116H13.2884ZM7 4.02381V4.64286H8V4.02381H7ZM10.1757 0.738098C8.39109 0.738098 7 2.2885 7 4.02381H8C8 2.78849 8.99426 1.7381 10.1757 1.7381V0.738098ZM12.2884 4.49915C12.2884 8.29281 9.10113 11.5714 5.33333 11.5714V12.5714C9.67292 12.5714 13.2884 8.82539 13.2884 4.49915H12.2884ZM1.72426 1.41342C2.21751 2.73078 4.05777 5.14286 7.5 5.14286V4.14286C4.58471 4.14286 3.05051 2.1037 2.66077 1.06277L1.72426 1.41342ZM1.74516 1.01477C0.815073 2.87782 0.647599 4.7128 1.30406 6.28377C1.96053 7.85476 3.40013 9.06411 5.48452 9.75998L5.80119 8.81145C3.91214 8.18079 2.74357 7.13504 2.22674 5.89821C1.7099 4.66135 1.80398 3.13579 2.63987 1.46143L1.74516 1.01477ZM5.28903 8.93244C4.77157 9.45071 3.26707 10.466 1.30952 10.466V11.466C3.59033 11.466 5.33684 10.2999 5.99669 9.63899L5.28903 8.93244ZM12.4837 1.76357C11.915 1.13456 11.0913 0.738098 10.1757 0.738098V1.7381C10.7966 1.7381 11.3546 2.00586 11.742 2.43425L12.4837 1.76357ZM12.1877 2.59327C12.874 2.48933 13.5422 2.12928 14.0431 1.5725L13.2997 0.903695C12.9476 1.29507 12.4865 1.53662 12.038 1.60455L12.1877 2.59327ZM1.03188 11.3818C2.46461 12.3384 3.84451 12.5714 5.33333 12.5714V11.5714C3.96851 11.5714 2.8034 11.3622 1.58717 10.5502L1.03188 11.3818Z" fill="#111111"/>
</svg>
